<?xml version="1.0" encoding="UTF-8" standalone="no"?>
<svg
   xmlns:dc="http://purl.org/dc/elements/1.1/"
   xmlns:cc="http://creativecommons.org/ns#"
   xmlns:rdf="http://www.w3.org/1999/02/22-rdf-syntax-ns#"
   xmlns:svg="http://www.w3.org/2000/svg"
   xmlns="http://www.w3.org/2000/svg"
   viewBox="0 0 327.98666 303.02667"
   height="303.02667"
   width="327.98666"
   xml:space="preserve"
   id="svg2"
   version="1.1"><metadata
     id="metadata8"><rdf:RDF><cc:Work
         rdf:about=""><dc:format>image/svg+xml</dc:format><dc:type
           rdf:resource="http://purl.org/dc/dcmitype/StillImage" /></cc:Work></rdf:RDF></metadata><defs
     id="defs6"><clipPath
       id="clipPath96"
       clipPathUnits="userSpaceOnUse"><path
         id="path94"
         d="m 1564.8,967.199 h 311 v 337.027 h -311 z" /></clipPath><clipPath
       id="clipPath106"
       clipPathUnits="userSpaceOnUse"><path
         id="path104"
         d="m 583.199,967.199 h 311 v 337.027 h -311 z" /></clipPath><clipPath
       id="clipPath116"
       clipPathUnits="userSpaceOnUse"><path
         id="path114"
         d="m 380.398,553.199 h 226 V 869.25 h -226 z" /></clipPath></defs><g
     transform="matrix(1.3333333,0,0,-1.3333333,0,303.02667)"
     id="g10"><g
       transform="scale(0.1)"
       id="g12"><path
         id="path14"
         style="fill:#ffffff;fill-opacity:1;fill-rule:nonzero;stroke:none"
         d="M 1474.9,994.273 V 1277.64 L 1229.5,1419.32 984.102,1277.64 V 994.273 L 1229.5,852.59 1474.9,994.273" /><path
         id="path16"
         style="fill:none;stroke:#000000;stroke-width:4.99821997;stroke-linecap:round;stroke-linejoin:round;stroke-miterlimit:10;stroke-dasharray:none;stroke-opacity:1"
         d="M 1474.9,994.273 V 1277.64 L 1229.5,1419.32 984.102,1277.64 V 994.273 L 1229.5,852.59 Z" /><path
         id="path18"
         style="fill:#1f78b4;fill-opacity:1;fill-rule:nonzero;stroke:none"
         d="m 1965.7,994.273 v 283.367 l -245.4,141.68 -245.4,-141.68 V 994.273 l 245.4,-141.683 245.4,141.683" /><path
         id="path20"
         style="fill:none;stroke:#000000;stroke-width:4.99821997;stroke-linecap:round;stroke-linejoin:round;stroke-miterlimit:10;stroke-dasharray:none;stroke-opacity:1"
         d="m 1965.7,994.273 v 283.367 l -245.4,141.68 -245.4,-141.68 V 994.273 L 1720.3,852.59 Z" /><path
         id="path22"
         style="fill:#1a1a1a;fill-opacity:1;fill-rule:nonzero;stroke:none"
         d="m 1720.3,1419.32 v 283.36 l -245.4,141.68 -245.4,-141.68 v -283.36 l 245.4,-141.68 245.4,141.68" /><path
         id="path24"
         style="fill:none;stroke:#000000;stroke-width:4.99821997;stroke-linecap:round;stroke-linejoin:round;stroke-miterlimit:10;stroke-dasharray:none;stroke-opacity:1"
         d="m 1720.3,1419.32 v 283.36 l -245.4,141.68 -245.4,-141.68 v -283.36 l 245.4,-141.68 z" /><path
         id="path26"
         style="fill:#1a1a1a;fill-opacity:1;fill-rule:nonzero;stroke:none"
         d="m 1229.5,1419.32 v 283.36 L 984.102,1844.36 738.699,1702.68 v -283.36 l 245.403,-141.68 245.398,141.68" /><path
         id="path28"
         style="fill:none;stroke:#000000;stroke-width:4.99821997;stroke-linecap:round;stroke-linejoin:round;stroke-miterlimit:10;stroke-dasharray:none;stroke-opacity:1"
         d="m 1229.5,1419.32 v 283.36 L 984.102,1844.36 738.699,1702.68 v -283.36 l 245.403,-141.68 z" /><path
         id="path30"
         style="fill:#b2df8a;fill-opacity:1;fill-rule:nonzero;stroke:none"
         d="M 984.102,994.273 V 1277.64 L 738.699,1419.32 493.301,1277.64 V 994.273 L 738.699,852.59 984.102,994.273" /><path
         id="path32"
         style="fill:none;stroke:#000000;stroke-width:4.99821997;stroke-linecap:round;stroke-linejoin:round;stroke-miterlimit:10;stroke-dasharray:none;stroke-opacity:1"
         d="M 984.102,994.273 V 1277.64 L 738.699,1419.32 493.301,1277.64 V 994.273 L 738.699,852.59 Z" /><path
         id="path34"
         style="fill:#1a1a1a;fill-opacity:1;fill-rule:nonzero;stroke:none"
         d="M 1720.3,569.227 V 852.59 L 1474.9,994.273 1229.5,852.59 V 569.227 l 245.4,-141.68 245.4,141.68" /><path
         id="path36"
         style="fill:none;stroke:#000000;stroke-width:4.99821997;stroke-linecap:round;stroke-linejoin:round;stroke-miterlimit:10;stroke-dasharray:none;stroke-opacity:1"
         d="M 1720.3,569.227 V 852.59 L 1474.9,994.273 1229.5,852.59 V 569.227 l 245.4,-141.68 z" /><path
         id="path38"
         style="fill:#1a1a1a;fill-opacity:1;fill-rule:nonzero;stroke:none"
         d="M 1229.5,569.227 V 852.59 L 984.102,994.273 738.699,852.59 V 569.227 l 245.403,-141.68 245.398,141.68" /><path
         id="path40"
         style="fill:none;stroke:#000000;stroke-width:4.99821997;stroke-linecap:round;stroke-linejoin:round;stroke-miterlimit:10;stroke-dasharray:none;stroke-opacity:1"
         d="M 1229.5,569.227 V 852.59 L 984.102,994.273 738.699,852.59 V 569.227 l 245.403,-141.68 z" /><path
         id="path42"
         style="fill:#1f78b4;fill-opacity:1;fill-rule:nonzero;stroke:none"
         d="m 2456.5,994.273 v 283.367 l -245.4,141.68 -245.4,-141.68 V 994.273 l 245.4,-141.683 245.4,141.683" /><path
         id="path44"
         style="fill:none;stroke:#000000;stroke-width:4.99821997;stroke-linecap:round;stroke-linejoin:round;stroke-miterlimit:10;stroke-dasharray:none;stroke-opacity:1"
         d="m 2456.5,994.273 v 283.367 l -245.4,141.68 -245.4,-141.68 V 994.273 L 2211.1,852.59 Z" /><path
         id="path46"
         style="fill:#ffffff;fill-opacity:1;fill-rule:nonzero;stroke:none"
         d="m 1965.7,1844.36 v 283.37 l -245.4,141.68 -245.4,-141.68 v -283.37 l 245.4,-141.68 245.4,141.68" /><path
         id="path48"
         style="fill:none;stroke:#000000;stroke-width:4.99821997;stroke-linecap:round;stroke-linejoin:round;stroke-miterlimit:10;stroke-dasharray:none;stroke-opacity:1"
         d="m 1965.7,1844.36 v 283.37 l -245.4,141.68 -245.4,-141.68 v -283.37 l 245.4,-141.68 z" /><path
         id="path50"
         style="fill:#ffffff;fill-opacity:1;fill-rule:nonzero;stroke:none"
         d="m 984.102,1844.36 v 283.37 L 738.699,2269.41 493.301,2127.73 v -283.37 l 245.398,-141.68 245.403,141.68" /><path
         id="path52"
         style="fill:none;stroke:#000000;stroke-width:4.99821997;stroke-linecap:round;stroke-linejoin:round;stroke-miterlimit:10;stroke-dasharray:none;stroke-opacity:1"
         d="m 984.102,1844.36 v 283.37 L 738.699,2269.41 493.301,2127.73 v -283.37 l 245.398,-141.68 z" /><path
         id="path54"
         style="fill:#b2df8a;fill-opacity:1;fill-rule:nonzero;stroke:none"
         d="M 493.301,994.273 V 1277.64 L 247.898,1419.32 2.5,1277.64 V 994.273 L 247.898,852.59 493.301,994.273" /><path
         id="path56"
         style="fill:none;stroke:#000000;stroke-width:4.99821997;stroke-linecap:round;stroke-linejoin:round;stroke-miterlimit:10;stroke-dasharray:none;stroke-opacity:1"
         d="M 493.301,994.273 V 1277.64 L 247.898,1419.32 2.5,1277.64 V 994.273 L 247.898,852.59 Z" /><path
         id="path58"
         style="fill:#ffffff;fill-opacity:1;fill-rule:nonzero;stroke:none"
         d="m 1965.7,144.18 v 283.367 l -245.4,141.68 -245.4,-141.68 V 144.18 L 1720.3,2.5 1965.7,144.18" /><path
         id="path60"
         style="fill:none;stroke:#000000;stroke-width:4.99821997;stroke-linecap:round;stroke-linejoin:round;stroke-miterlimit:10;stroke-dasharray:none;stroke-opacity:1"
         d="m 1965.7,144.18 v 283.367 l -245.4,141.68 -245.4,-141.68 V 144.18 L 1720.3,2.5 Z" /><path
         id="path62"
         style="fill:#ffffff;fill-opacity:1;fill-rule:nonzero;stroke:none"
         d="M 984.102,144.18 V 427.547 L 738.699,569.227 493.301,427.547 V 144.18 L 738.699,2.5 984.102,144.18" /><path
         id="path64"
         style="fill:none;stroke:#000000;stroke-width:4.99821997;stroke-linecap:round;stroke-linejoin:round;stroke-miterlimit:10;stroke-dasharray:none;stroke-opacity:1"
         d="M 984.102,144.18 V 427.547 L 738.699,569.227 493.301,427.547 V 144.18 L 738.699,2.5 Z" /><path
         id="path66"
         style="fill:#b2df8a;fill-opacity:1;fill-rule:nonzero;stroke:none"
         d="m 738.699,1419.32 v 283.36 L 493.301,1844.36 247.898,1702.68 v -283.36 l 245.403,-141.68 245.398,141.68" /><path
         id="path68"
         style="fill:none;stroke:#000000;stroke-width:4.99821997;stroke-linecap:round;stroke-linejoin:round;stroke-miterlimit:10;stroke-dasharray:none;stroke-opacity:1"
         d="m 738.699,1419.32 v 283.36 L 493.301,1844.36 247.898,1702.68 v -283.36 l 245.403,-141.68 z" /><path
         id="path70"
         style="fill:#b2df8a;fill-opacity:1;fill-rule:nonzero;stroke:none"
         d="M 738.699,569.227 V 852.59 L 493.301,994.273 247.898,852.59 V 569.227 l 245.403,-141.68 245.398,141.68" /><path
         id="path72"
         style="fill:none;stroke:#000000;stroke-width:4.99821997;stroke-linecap:round;stroke-linejoin:round;stroke-miterlimit:10;stroke-dasharray:none;stroke-opacity:1"
         d="M 738.699,569.227 V 852.59 L 493.301,994.273 247.898,852.59 V 569.227 l 245.403,-141.68 z" /><path
         id="path74"
         style="fill:#ffffff;fill-opacity:1;fill-rule:nonzero;stroke:none"
         d="M 1474.9,144.18 V 427.547 L 1229.5,569.227 984.102,427.547 V 144.18 L 1229.5,2.5 1474.9,144.18" /><path
         id="path76"
         style="fill:none;stroke:#000000;stroke-width:4.99821997;stroke-linecap:round;stroke-linejoin:round;stroke-miterlimit:10;stroke-dasharray:none;stroke-opacity:1"
         d="M 1474.9,144.18 V 427.547 L 1229.5,569.227 984.102,427.547 V 144.18 L 1229.5,2.5 Z" /><path
         id="path78"
         style="fill:#1f78b4;fill-opacity:1;fill-rule:nonzero;stroke:none"
         d="M 2211.1,569.227 V 852.59 L 1965.7,994.273 1720.3,852.59 V 569.227 l 245.4,-141.68 245.4,141.68" /><path
         id="path80"
         style="fill:none;stroke:#000000;stroke-width:4.99821997;stroke-linecap:round;stroke-linejoin:round;stroke-miterlimit:10;stroke-dasharray:none;stroke-opacity:1"
         d="M 2211.1,569.227 V 852.59 L 1965.7,994.273 1720.3,852.59 V 569.227 l 245.4,-141.68 z" /><path
         id="path82"
         style="fill:#1f78b4;fill-opacity:1;fill-rule:nonzero;stroke:none"
         d="m 2211.1,1419.32 v 283.36 l -245.4,141.68 -245.4,-141.68 v -283.36 l 245.4,-141.68 245.4,141.68" /><path
         id="path84"
         style="fill:none;stroke:#000000;stroke-width:4.99821997;stroke-linecap:round;stroke-linejoin:round;stroke-miterlimit:10;stroke-dasharray:none;stroke-opacity:1"
         d="m 2211.1,1419.32 v 283.36 l -245.4,141.68 -245.4,-141.68 v -283.36 l 245.4,-141.68 z" /><path
         id="path86"
         style="fill:#ffffff;fill-opacity:1;fill-rule:nonzero;stroke:none"
         d="m 1474.9,1844.36 v 283.37 l -245.4,141.68 -245.398,-141.68 v -283.37 l 245.398,-141.68 245.4,141.68" /><path
         id="path88"
         style="fill:none;stroke:#000000;stroke-width:4.99821997;stroke-linecap:round;stroke-linejoin:round;stroke-miterlimit:10;stroke-dasharray:none;stroke-opacity:1"
         d="m 1474.9,1844.36 v 283.37 L 1229.5,2269.41 984.102,2127.73 V 1844.36 L 1229.5,1702.68 Z" /><g
         id="g90"><g
           clip-path="url(#clipPath96)"
           id="g92"><path
             id="path98"
             style="fill:#00000a;fill-opacity:1;fill-rule:evenodd;stroke:none"
             d="m 1767.63,1021.34 h -110.28 c 0,15.68 1.11,18.79 27.08,18.79 -4.15,12.44 -21.01,42.55 -30.38,42.55 -8.29,0 -18.17,-0.46 -18.17,-19.38 0,-21.47 -36.14,-56.08 -44.9,-41.96 -13.05,21.05 22.45,14.63 22.45,65.39 0,69.44 -40.53,59.56 -40.53,98.57 0,19.52 5.4,22.15 5.4,36.11 0,18.44 -16.25,17.37 -13.09,32.66 2.18,10.56 3.89,19.04 5.16,31.81 0.91,9.07 1.2,18.72 10.61,18.33 11.06,-0.45 15.25,-19.92 32.45,-21.32 17.16,-1.39 31.78,14.61 38.43,12.32 6.58,-2.26 4.51,-20.13 0.61,-32.82 -6.14,-19.93 -19.52,-45.86 4.88,-49.76 24.4,-3.91 66.36,-7.81 96.61,-47.83 30.26,-40.01 29.14,-86.97 40.99,-101.5 39.78,-48.74 80.55,-28.73 80.55,-69.288 0,-18.157 -30.77,-31.231 -35.65,-25.375 -4.88,5.855 41.46,23.308 -10.39,43.913 -44.3,17.62 -48.26,21.21 -61.83,8.79 z" /></g></g><g
         id="g100"><g
           clip-path="url(#clipPath106)"
           id="g102"><path
             id="path108"
             style="fill:#00000a;fill-opacity:1;fill-rule:evenodd;stroke:none"
             d="M 786.027,1021.34 H 675.746 c 0,15.68 1.117,18.79 27.082,18.79 -4.148,12.44 -21.008,42.55 -30.375,42.55 -8.289,0 -18.176,-0.46 -18.176,-19.38 0,-21.47 -36.136,-56.08 -44.894,-41.96 -13.059,21.05 22.445,14.63 22.445,65.39 0,69.44 -40.523,59.56 -40.523,98.57 0,19.52 5.39,22.15 5.39,36.11 0,18.44 -16.25,17.37 -13.09,32.66 2.188,10.56 3.895,19.04 5.165,31.81 0.906,9.07 1.195,18.72 10.609,18.33 11.062,-0.45 15.254,-19.92 32.449,-21.32 17.156,-1.39 31.785,14.61 38.43,12.32 6.582,-2.26 4.512,-20.13 0.609,-32.82 -6.137,-19.93 -19.519,-45.86 4.879,-49.76 24.399,-3.91 66.363,-7.81 96.617,-47.83 30.254,-40.01 29.137,-86.97 40.992,-101.5 39.774,-48.74 80.54,-28.73 80.54,-69.288 0,-18.157 -30.766,-31.231 -35.649,-25.375 -4.879,5.855 41.465,23.308 -10.387,43.913 -44.304,17.62 -48.257,21.21 -61.832,8.79 z" /></g></g><g
         id="g110"><g
           clip-path="url(#clipPath116)"
           id="g112"><path
             id="path118"
             style="fill:#000000;fill-opacity:1;fill-rule:nonzero;stroke:none"
             d="m 525.258,869.227 c -8.899,-0.739 -18.293,-4.032 -25.754,-9.039 -3.434,-2.313 -8.727,-7.395 -11.281,-10.829 -6.309,-8.48 -10.059,-21.652 -10.758,-37.875 l -0.211,-5.257 -4.203,-0.594 c -4.379,-0.633 -12.02,-2.106 -14.262,-2.735 l -1.332,-0.386 v -28.907 l -4.801,-1.855 c -15.277,-5.957 -28.59,-14.789 -40.222,-26.699 -16.293,-16.715 -26.594,-36.934 -30.45,-59.918 -7.394,-43.727 11.493,-87.668 48.321,-112.403 8.617,-5.781 16.429,-9.707 25.925,-12.964 27.157,-9.391 55.711,-8.305 82.375,3.117 7.782,3.328 18.329,9.637 24.844,14.89 21.621,17.379 35.668,40.54 40.961,67.625 1.403,7.114 1.75,11.457 1.75,21.024 0,9.566 -0.347,13.91 -1.75,21.023 -5.887,30.063 -22.879,55.817 -47.969,72.672 -7.812,5.254 -15.242,9.074 -23.546,12.156 l -3.606,1.332 v 28.907 l -1.301,0.351 c -3.429,0.91 -8.476,1.891 -13.347,2.629 -2.946,0.453 -5.395,0.875 -5.465,0.946 -0.317,0.316 0.558,10.968 1.191,14.714 0.91,5.606 1.715,7.5 4.203,10.235 4.102,4.449 8.41,6.48 14.543,6.793 27.391,1.453 33.555,32.031 -3.855,31.047 z" /></g></g></g></g></svg>