<?xml version="1.0" encoding="UTF-8" standalone="no"?>
<svg
   xmlns:dc="http://purl.org/dc/elements/1.1/"
   xmlns:cc="http://creativecommons.org/ns#"
   xmlns:rdf="http://www.w3.org/1999/02/22-rdf-syntax-ns#"
   xmlns:svg="http://www.w3.org/2000/svg"
   xmlns="http://www.w3.org/2000/svg"
   viewBox="0 0 308.51999 442.50668"
   height="442.50668"
   width="308.51999"
   xml:space="preserve"
   id="svg2"
   version="1.1"><metadata
     id="metadata8"><rdf:RDF><cc:Work
         rdf:about=""><dc:format>image/svg+xml</dc:format><dc:type
           rdf:resource="http://purl.org/dc/dcmitype/StillImage" /></cc:Work></rdf:RDF></metadata><defs
     id="defs6"><clipPath
       id="clipPath52"
       clipPathUnits="userSpaceOnUse"><path
         id="path50"
         d="m 145.199,1393.2 h 311 v 337.027 h -311 z" /></clipPath><clipPath
       id="clipPath62"
       clipPathUnits="userSpaceOnUse"><path
         id="path60"
         d="m 636,1393.2 h 311 v 337.027 H 636 Z" /></clipPath><clipPath
       id="clipPath72"
       clipPathUnits="userSpaceOnUse"><path
         id="path70"
         d="M 678,553.199 H 904 V 869.25 H 678 Z" /></clipPath><clipPath
       id="clipPath82"
       clipPathUnits="userSpaceOnUse"><path
         id="path80"
         d="m 333.602,79.1992 h 425 v 413.711 h -425 z" /></clipPath></defs><g
     transform="matrix(1.3333333,0,0,-1.3333333,0,442.50667)"
     id="g10"><g
       transform="scale(0.1)"
       id="g12"><path
         id="path14"
         style="fill:#ffffff;fill-opacity:1;fill-rule:nonzero;stroke:none"
         d="m 791.211,2694.41 v 283.36 L 545.816,3119.45 300.418,2977.77 v -283.36 l 245.398,-141.68 245.395,141.68" /><path
         id="path16"
         style="fill:none;stroke:#000000;stroke-width:4.99813986;stroke-linecap:round;stroke-linejoin:round;stroke-miterlimit:10;stroke-dasharray:none;stroke-opacity:1"
         d="m 791.211,2694.41 v 283.36 L 545.816,3119.45 300.418,2977.77 v -283.36 l 245.398,-141.68 z" /><path
         id="path18"
         style="fill:#1f78b4;fill-opacity:1;fill-rule:nonzero;stroke:none"
         d="m 545.816,2269.37 v 283.36 L 300.418,2694.41 55.0234,2552.73 v -283.36 l 245.3946,-141.68 245.398,141.68" /><path
         id="path20"
         style="fill:none;stroke:#000000;stroke-width:4.99813986;stroke-linecap:round;stroke-linejoin:round;stroke-miterlimit:10;stroke-dasharray:none;stroke-opacity:1"
         d="m 545.816,2269.37 v 283.36 L 300.418,2694.41 55.0234,2552.73 V 2269.37 L 300.418,2127.69 Z" /><path
         id="path22"
         style="fill:#b2df8a;fill-opacity:1;fill-rule:nonzero;stroke:none"
         d="m 1036.61,2269.37 v 283.36 L 791.211,2694.41 545.816,2552.73 v -283.36 l 245.395,-141.68 245.399,141.68" /><path
         id="path24"
         style="fill:none;stroke:#000000;stroke-width:4.99813986;stroke-linecap:round;stroke-linejoin:round;stroke-miterlimit:10;stroke-dasharray:none;stroke-opacity:1"
         d="m 1036.61,2269.37 v 283.36 L 791.211,2694.41 545.816,2552.73 v -283.36 l 245.395,-141.68 z" /><path
         id="path26"
         style="fill:#1f78b4;fill-opacity:1;fill-rule:nonzero;stroke:none"
         d="m 545.816,1419.3 v 283.35 L 300.418,1844.33 55.0234,1702.65 V 1419.3 L 300.418,1277.62 545.816,1419.3" /><path
         id="path28"
         style="fill:none;stroke:#000000;stroke-width:4.99813986;stroke-linecap:round;stroke-linejoin:round;stroke-miterlimit:10;stroke-dasharray:none;stroke-opacity:1"
         d="m 545.816,1419.3 v 283.35 L 300.418,1844.33 55.0234,1702.65 V 1419.3 L 300.418,1277.62 Z" /><path
         id="path30"
         style="fill:#b2df8a;fill-opacity:1;fill-rule:nonzero;stroke:none"
         d="m 1036.61,1419.3 v 283.35 L 791.211,1844.33 545.816,1702.65 V 1419.3 l 245.395,-141.68 245.399,141.68" /><path
         id="path32"
         style="fill:none;stroke:#000000;stroke-width:4.99813986;stroke-linecap:round;stroke-linejoin:round;stroke-miterlimit:10;stroke-dasharray:none;stroke-opacity:1"
         d="m 1036.61,1419.3 v 283.35 L 791.211,1844.33 545.816,1702.65 V 1419.3 l 245.395,-141.68 z" /><path
         id="path34"
         style="fill:#1a1a1a;fill-opacity:1;fill-rule:nonzero;stroke:none"
         d="M 791.211,994.258 V 1277.62 L 545.816,1419.3 300.418,1277.62 V 994.258 l 245.398,-141.68 245.395,141.68" /><path
         id="path36"
         style="fill:none;stroke:#000000;stroke-width:4.99813986;stroke-linecap:round;stroke-linejoin:round;stroke-miterlimit:10;stroke-dasharray:none;stroke-opacity:1"
         d="M 791.211,994.258 V 1277.62 L 545.816,1419.3 300.418,1277.62 V 994.258 l 245.398,-141.68 z" /><path
         id="path38"
         style="fill:#b2df8a;fill-opacity:1;fill-rule:nonzero;stroke:none"
         d="M 1036.61,569.219 V 852.578 L 791.211,994.258 545.816,852.578 V 569.219 l 245.395,-141.68 245.399,141.68" /><path
         id="path40"
         style="fill:none;stroke:#000000;stroke-width:4.99813986;stroke-linecap:round;stroke-linejoin:round;stroke-miterlimit:10;stroke-dasharray:none;stroke-opacity:1"
         d="M 1036.61,569.219 V 852.578 L 791.211,994.258 545.816,852.578 V 569.219 l 245.395,-141.68 z" /><path
         id="path42"
         style="fill:#1f78b4;fill-opacity:1;fill-rule:nonzero;stroke:none"
         d="M 791.211,144.18 V 427.539 L 545.816,569.219 300.418,427.539 V 144.18 L 545.816,2.5 791.211,144.18" /><path
         id="path44"
         style="fill:none;stroke:#000000;stroke-width:4.99813986;stroke-linecap:round;stroke-linejoin:round;stroke-miterlimit:10;stroke-dasharray:none;stroke-opacity:1"
         d="M 791.211,144.18 V 427.539 L 545.816,569.219 300.418,427.539 V 144.18 L 545.816,2.5 Z" /><g
         id="g46"><g
           clip-path="url(#clipPath52)"
           id="g48"><path
             id="path54"
             style="fill:#00000a;fill-opacity:1;fill-rule:evenodd;stroke:none"
             d="M 348.027,1447.34 H 237.746 c 0,15.68 1.117,18.79 27.082,18.79 -4.148,12.44 -21.008,42.55 -30.375,42.55 -8.289,0 -18.176,-0.46 -18.176,-19.38 0,-21.47 -36.136,-56.08 -44.894,-41.96 -13.059,21.05 22.445,14.63 22.445,65.39 0,69.44 -40.523,59.56 -40.523,98.57 0,19.52 5.39,22.15 5.39,36.11 0,18.44 -16.25,17.37 -13.09,32.66 2.188,10.56 3.895,19.04 5.165,31.81 0.906,9.07 1.195,18.72 10.609,18.33 11.062,-0.45 15.254,-19.92 32.449,-21.32 17.156,-1.39 31.785,14.61 38.43,12.32 6.582,-2.26 4.512,-20.13 0.609,-32.82 -6.137,-19.93 -19.519,-45.86 4.879,-49.76 24.399,-3.91 66.363,-7.81 96.617,-47.83 30.254,-40.01 29.137,-86.97 40.992,-101.5 39.774,-48.74 80.54,-28.73 80.54,-69.29 0,-18.15 -30.766,-31.23 -35.649,-25.37 -4.879,5.85 41.465,23.31 -10.387,43.91 -44.304,17.62 -48.257,21.21 -61.832,8.79 z" /></g></g><g
         id="g56"><g
           clip-path="url(#clipPath62)"
           id="g58"><path
             id="path64"
             style="fill:#00000a;fill-opacity:1;fill-rule:evenodd;stroke:none"
             d="M 838.828,1447.34 H 728.547 c 0,15.68 1.117,18.79 27.082,18.79 -4.149,12.44 -21.008,42.55 -30.375,42.55 -8.293,0 -18.18,-0.46 -18.18,-19.38 0,-21.47 -36.133,-56.08 -44.89,-41.96 -13.059,21.05 22.445,14.63 22.445,65.39 0,69.44 -40.527,59.56 -40.527,98.57 0,19.52 5.394,22.15 5.394,36.11 0,18.44 -16.25,17.37 -13.09,32.66 2.188,10.56 3.895,19.04 5.164,31.81 0.907,9.07 1.196,18.72 10.61,18.33 11.062,-0.45 15.254,-19.92 32.449,-21.32 17.156,-1.39 31.785,14.61 38.426,12.32 6.586,-2.26 4.515,-20.13 0.613,-32.82 -6.137,-19.93 -19.52,-45.86 4.879,-49.76 24.398,-3.91 66.363,-7.81 96.617,-47.83 30.254,-40.01 29.137,-86.97 40.992,-101.5 39.774,-48.74 80.539,-28.73 80.539,-69.29 0,-18.15 -30.769,-31.23 -35.648,-25.37 -4.879,5.85 41.461,23.31 -10.387,43.91 -44.305,17.62 -48.262,21.21 -61.832,8.79 z" /></g></g><g
         id="g66"><g
           clip-path="url(#clipPath72)"
           id="g68"><path
             id="path74"
             style="fill:#000000;fill-opacity:1;fill-rule:nonzero;stroke:none"
             d="m 822.859,869.227 c -8.902,-0.739 -18.293,-4.032 -25.754,-9.039 -3.433,-2.313 -8.726,-7.395 -11.285,-10.829 -6.304,-8.48 -10.054,-21.652 -10.757,-37.875 l -0.208,-5.257 -4.207,-0.594 C 766.27,805 758.633,803.527 756.387,802.898 l -1.328,-0.386 v -28.907 l -4.801,-1.855 c -15.278,-5.957 -28.594,-14.789 -40.227,-26.699 -16.293,-16.715 -26.593,-36.934 -30.449,-59.918 -7.391,-43.727 11.496,-87.668 48.32,-112.403 8.621,-5.781 16.434,-9.707 25.93,-12.964 27.156,-9.391 55.711,-8.305 82.375,3.117 7.777,3.328 18.324,9.637 24.844,14.89 21.617,17.379 35.668,40.54 40.961,67.625 1.398,7.114 1.75,11.457 1.75,21.024 0,9.566 -0.352,13.91 -1.75,21.023 -5.887,30.063 -22.883,55.817 -47.969,72.672 -7.816,5.254 -15.242,9.074 -23.547,12.156 l -3.609,1.332 v 28.907 l -1.297,0.351 c -3.434,0.91 -8.481,1.891 -13.348,2.629 -2.945,0.453 -5.398,0.875 -5.469,0.946 -0.312,0.316 0.563,10.968 1.192,14.714 0.91,5.606 1.719,7.5 4.207,10.235 4.098,4.449 8.41,6.48 14.539,6.793 27.394,1.453 33.555,32.031 -3.852,31.047 z" /></g></g><g
         id="g76"><g
           clip-path="url(#clipPath82)"
           id="g78"><path
             id="path84"
             style="fill:#000000;fill-opacity:1;fill-rule:nonzero;stroke:none"
             d="m 590.27,491.879 c -0.567,-0.598 -8.469,-9.762 -17.532,-20.387 l -16.535,-19.289 -6.308,0.164 c -21.184,0.5 -42.965,-3.519 -62.954,-11.652 l -5.179,-2.094 -22.547,21.184 c -12.383,11.656 -22.875,21.25 -23.309,21.383 -0.894,0.234 -1.726,-0.364 -1.726,-1.262 0,-0.629 2.125,-10.891 9.629,-46.551 l 3.355,-15.937 -1.098,-0.829 c -3.121,-2.425 -9.328,-8.168 -14.043,-13.015 -10.957,-11.223 -19.324,-22.711 -26.996,-37.188 l -2.058,-3.851 -34.266,-0.067 c -23.508,-0.066 -34.43,-0.199 -34.695,-0.433 -0.766,-0.629 -0.465,-1.528 0.996,-2.688 0.762,-0.633 13.113,-9.531 27.457,-19.824 14.344,-10.293 26.199,-18.793 26.363,-18.957 0.168,-0.133 -0.031,-2.391 -0.398,-5.18 -1.293,-9.164 -1.559,-13.015 -1.528,-23.676 0,-12.617 0.832,-20.984 3.122,-31.972 0.367,-1.66 0.597,-3.055 0.566,-3.09 -0.035,-0.031 -12.086,-8.664 -26.797,-19.223 -14.707,-10.558 -27.359,-19.691 -28.121,-20.32 -1.527,-1.195 -1.695,-1.629 -0.996,-2.523 0.465,-0.664 -1.992,-0.532 45.223,-2.227 15.539,-0.562 28.386,-1.062 28.554,-1.129 0.199,-0.066 1.293,-1.691 2.457,-3.617 2.887,-4.781 8.731,-12.852 13.313,-18.363 4.316,-5.246 14.246,-15.305 18.961,-19.258 l 3.187,-2.688 -2.094,-5.945 c -1.128,-3.254 -4.281,-12.219 -6.937,-19.887 -2.691,-7.672 -6.477,-18.562 -8.469,-24.238 -1.992,-5.68 -4.715,-13.547 -6.109,-17.5 -1.395,-3.9844 -2.524,-7.4375 -2.524,-7.7031 0,-0.6953 0.899,-1.293 1.727,-1.1289 0.434,0.1015 16.105,11.621 34.863,25.602 l 34.102,25.464 5.578,-1.859 c 14.078,-4.68 29.383,-7.504 44.226,-8.066 l 5.477,-0.2 15.606,-25.765 c 8.601,-14.1799 15.839,-26.0315 16.105,-26.3323 0.562,-0.664 1.492,-0.6953 2.023,-0.0664 0.2,0.2656 0.567,1.2305 0.797,2.0938 0.266,0.8632 3.321,12.2187 6.84,25.1679 3.52,12.981 6.942,25.633 7.606,28.188 l 1.226,4.617 3.985,1.394 c 15.074,5.278 30.117,13.379 42.898,23.11 2.258,1.726 4.316,3.254 4.582,3.453 0.332,0.23 9.266,-2.625 31.41,-10.063 17.035,-5.711 31.246,-10.359 31.578,-10.359 0.297,0 0.731,0.367 0.93,0.797 0.332,0.699 0.164,1.164 -1.195,3.586 -1.262,2.16 -25.868,44.758 -29.254,50.57 l -0.762,1.359 1.625,2.59 c 10.063,15.641 17.832,34.797 21.582,53.059 0.531,2.558 1.031,4.683 1.063,4.715 0.066,0.035 2.191,0.832 4.75,1.761 2.554,0.961 11.82,4.348 20.586,7.571 8.765,3.218 18.394,6.773 21.414,7.867 3.023,1.098 5.812,2.191 6.242,2.457 0.929,0.633 0.929,1.629 -0.031,2.258 -0.665,0.465 -13.282,5.777 -42.766,18.031 l -8.5,3.551 -0.399,3.488 c -2.293,20.32 -9.695,42.699 -20.121,60.793 -1.925,3.32 -2.16,3.918 -1.793,4.484 0.231,0.364 6.739,10.723 14.508,23.043 7.77,12.317 14.18,22.676 14.278,23.008 0.066,0.332 -0.032,0.832 -0.266,1.098 -0.797,0.961 2.125,1.824 -34.164,-10.16 -10.461,-3.453 -19.192,-6.278 -19.391,-6.278 -0.168,0 -1.594,1.164 -3.156,2.59 -17.363,15.84 -36.059,27.028 -57.34,34.266 l -4.648,1.594 -0.067,4.285 c -0.066,2.324 -0.234,12.847 -0.433,23.34 -0.297,17.433 -0.364,19.125 -0.895,19.492 -0.863,0.664 -1.297,0.531 -2.39,-0.633 z" /></g></g><g
         transform="scale(10)"
         id="g86"><text
           id="text90"
           style="font-variant:normal;font-weight:normal;font-size:11.9552002px;font-family:CMB10;-inkscape-font-specification:CMB10;writing-mode:lr-tb;fill:#000000;fill-opacity:1;fill-rule:nonzero;stroke:none"
           transform="matrix(1,0,0,-1,1.43984,322.08)"><tspan
             id="tspan88"
             y="0"
             x="0 7.319942 12.479955 17.880127 23.880144 29.400156 34.560173 39.240185 45.000198 51.600216 54.960224 64.68026 69.960274 75.480293 78.840294 82.200294">Traversablecells</tspan></text>
<text
           id="text96"
           style="font-variant:normal;font-weight:normal;font-size:11.9552002px;font-family:CMR12;-inkscape-font-specification:CMR12;writing-mode:lr-tb;fill:#000000;fill-opacity:1;fill-rule:nonzero;stroke:none"
           transform="matrix(1,0,0,-1,114.83984,280.68)"><tspan
             id="tspan92"
             y="0"
             x="0 7.920012 17.640051 24.120066 28.32 38.639942 43.199947 49.679977 54.839985 61.32 65.88002 70.440025 76.32003 83.400063 88.560074 94.440079 97.679939 103.55994 108.11996">Empty(neutralcolor)</tspan><tspan
             id="tspan94"
             y="42.480099"
             x="0 7.920012 17.640051 24.120066 28.32 38.639942 43.199947 49.679977 52.919834 58.439842 64.200005 69.360016 73.920021 78.480042 85.799911 90.959946 96.839951 100.0798 105.95981 110.51983">Empty(players’color)</tspan></text>
<text
           id="text100"
           style="font-variant:normal;font-weight:normal;font-size:11.9552002px;font-family:CMB10;-inkscape-font-specification:CMB10;writing-mode:lr-tb;fill:#000000;fill-opacity:1;fill-rule:nonzero;stroke:none"
           transform="matrix(1,0,0,-1,1.43984,194.5198)"><tspan
             id="tspan98"
             y="0"
             x="0 9.3600254 15.360041 21.960056 25.920069 30.60008 35.760098 41.160271 47.160286 52.680305 57.840313 62.520329 68.280342 74.880356 78.240372 88.080322 93.360336 98.880356 102.24036 105.60036">Non-traversablecells</tspan></text>
<text
           id="text110"
           style="font-variant:normal;font-weight:normal;font-size:11.9552002px;font-family:CMR12;-inkscape-font-specification:CMR12;writing-mode:lr-tb;fill:#000000;fill-opacity:1;fill-rule:nonzero;stroke:none"
           transform="matrix(1,0,0,-1,114.83984,152.0401)"><tspan
             id="tspan102"
             y="0"
             x="0 8.4000196 14.880047 20.760052 25.320057 31.200073 36.360081 40.920086 46.080093 50.640099">Characters</tspan><tspan
             id="tspan104"
             y="42.599998"
             x="0 11.039868 16.919884 20.159744">Wall</tspan><tspan
             id="tspan106"
             y="85.080101"
             x="0 8.4000196 14.880047 18.119907 28.680017 35.519886 41.399902 50.759769">Thinbomb</tspan><tspan
             id="tspan108"
             y="127.5602"
             x="0 6.7199368 12.599953 21.000048 27.839914 33.719933 43.0798">Fatbomb</tspan></text>
</g></g></g></svg>