<?xml version="1.0" encoding="UTF-8" standalone="no"?>
<svg
   xmlns:dc="http://purl.org/dc/elements/1.1/"
   xmlns:cc="http://creativecommons.org/ns#"
   xmlns:rdf="http://www.w3.org/1999/02/22-rdf-syntax-ns#"
   xmlns:svg="http://www.w3.org/2000/svg"
   xmlns="http://www.w3.org/2000/svg"
   viewBox="0 0 285.22668 441.32001"
   height="441.32001"
   width="285.22668"
   xml:space="preserve"
   id="svg2"
   version="1.1"><metadata
     id="metadata8"><rdf:RDF><cc:Work
         rdf:about=""><dc:format>image/svg+xml</dc:format><dc:type
           rdf:resource="http://purl.org/dc/dcmitype/StillImage" /></cc:Work></rdf:RDF></metadata><defs
     id="defs6"><clipPath
       id="clipPath52"
       clipPathUnits="userSpaceOnUse"><path
         id="path50"
         d="m 148.801,1393.2 h 311 v 337.027 h -311 z" /></clipPath><clipPath
       id="clipPath62"
       clipPathUnits="userSpaceOnUse"><path
         id="path60"
         d="m 639.602,1393.2 h 311 v 337.027 h -311 z" /></clipPath><clipPath
       id="clipPath72"
       clipPathUnits="userSpaceOnUse"><path
         id="path70"
         d="m 681.602,553.199 h 226 V 869.25 h -226 z" /></clipPath><clipPath
       id="clipPath82"
       clipPathUnits="userSpaceOnUse"><path
         id="path80"
         d="m 337.199,79.1992 h 425 v 413.711 h -425 z" /></clipPath></defs><g
     transform="matrix(1.3333333,0,0,-1.3333333,0,441.32)"
     id="g10"><g
       transform="scale(0.1)"
       id="g12"><path
         id="path14"
         style="fill:#ffffff;fill-opacity:1;fill-rule:nonzero;stroke:none"
         d="m 795.328,2695.11 v 283.43 L 549.867,3120.26 304.406,2978.54 v -283.43 l 245.461,-141.72 245.461,141.72" /><path
         id="path16"
         style="fill:none;stroke:#000000;stroke-width:4.99943018;stroke-linecap:round;stroke-linejoin:round;stroke-miterlimit:10;stroke-dasharray:none;stroke-opacity:1"
         d="m 795.328,2695.11 v 283.43 L 549.867,3120.26 304.406,2978.54 v -283.43 l 245.461,-141.72 z" /><path
         id="path18"
         style="fill:#1f78b4;fill-opacity:1;fill-rule:nonzero;stroke:none"
         d="m 549.867,2269.96 v 283.43 L 304.406,2695.11 58.9492,2553.39 v -283.43 l 245.4568,-141.72 245.461,141.72" /><path
         id="path20"
         style="fill:none;stroke:#000000;stroke-width:4.99943018;stroke-linecap:round;stroke-linejoin:round;stroke-miterlimit:10;stroke-dasharray:none;stroke-opacity:1"
         d="m 549.867,2269.96 v 283.43 L 304.406,2695.11 58.9492,2553.39 V 2269.96 L 304.406,2128.24 Z" /><path
         id="path22"
         style="fill:#b2df8a;fill-opacity:1;fill-rule:nonzero;stroke:none"
         d="m 1040.79,2269.96 v 283.43 L 795.328,2695.11 549.867,2553.39 v -283.43 l 245.461,-141.72 245.462,141.72" /><path
         id="path24"
         style="fill:none;stroke:#000000;stroke-width:4.99943018;stroke-linecap:round;stroke-linejoin:round;stroke-miterlimit:10;stroke-dasharray:none;stroke-opacity:1"
         d="m 1040.79,2269.96 v 283.43 L 795.328,2695.11 549.867,2553.39 v -283.43 l 245.461,-141.72 z" /><path
         id="path26"
         style="fill:#1f78b4;fill-opacity:1;fill-rule:nonzero;stroke:none"
         d="m 549.867,1419.66 v 283.43 L 304.406,1844.81 58.9492,1703.09 v -283.43 l 245.4568,-141.71 245.461,141.71" /><path
         id="path28"
         style="fill:none;stroke:#000000;stroke-width:4.99943018;stroke-linecap:round;stroke-linejoin:round;stroke-miterlimit:10;stroke-dasharray:none;stroke-opacity:1"
         d="m 549.867,1419.66 v 283.43 L 304.406,1844.81 58.9492,1703.09 V 1419.66 L 304.406,1277.95 Z" /><path
         id="path30"
         style="fill:#b2df8a;fill-opacity:1;fill-rule:nonzero;stroke:none"
         d="m 1040.79,1419.66 v 283.43 L 795.328,1844.81 549.867,1703.09 v -283.43 l 245.461,-141.71 245.462,141.71" /><path
         id="path32"
         style="fill:none;stroke:#000000;stroke-width:4.99943018;stroke-linecap:round;stroke-linejoin:round;stroke-miterlimit:10;stroke-dasharray:none;stroke-opacity:1"
         d="m 1040.79,1419.66 v 283.43 L 795.328,1844.81 549.867,1703.09 v -283.43 l 245.461,-141.71 z" /><path
         id="path34"
         style="fill:#1a1a1a;fill-opacity:1;fill-rule:nonzero;stroke:none"
         d="M 795.328,994.512 V 1277.95 L 549.867,1419.66 304.406,1277.95 V 994.512 L 549.867,852.797 795.328,994.512" /><path
         id="path36"
         style="fill:none;stroke:#000000;stroke-width:4.99943018;stroke-linecap:round;stroke-linejoin:round;stroke-miterlimit:10;stroke-dasharray:none;stroke-opacity:1"
         d="M 795.328,994.512 V 1277.95 L 549.867,1419.66 304.406,1277.95 V 994.512 L 549.867,852.797 Z" /><path
         id="path38"
         style="fill:#b2df8a;fill-opacity:1;fill-rule:nonzero;stroke:none"
         d="M 1040.79,569.363 V 852.797 L 795.328,994.512 549.867,852.797 V 569.363 L 795.328,427.648 1040.79,569.363" /><path
         id="path40"
         style="fill:none;stroke:#000000;stroke-width:4.99943018;stroke-linecap:round;stroke-linejoin:round;stroke-miterlimit:10;stroke-dasharray:none;stroke-opacity:1"
         d="M 1040.79,569.363 V 852.797 L 795.328,994.512 549.867,852.797 V 569.363 L 795.328,427.648 Z" /><path
         id="path42"
         style="fill:#1f78b4;fill-opacity:1;fill-rule:nonzero;stroke:none"
         d="M 795.328,144.215 V 427.648 L 549.867,569.363 304.406,427.648 V 144.215 L 549.867,2.5 795.328,144.215" /><path
         id="path44"
         style="fill:none;stroke:#000000;stroke-width:4.99943018;stroke-linecap:round;stroke-linejoin:round;stroke-miterlimit:10;stroke-dasharray:none;stroke-opacity:1"
         d="M 795.328,144.215 V 427.648 L 549.867,569.363 304.406,427.648 V 144.215 L 549.867,2.5 Z" /><g
         id="g46"><g
           clip-path="url(#clipPath52)"
           id="g48"><path
             id="path54"
             style="fill:#00000a;fill-opacity:1;fill-rule:evenodd;stroke:none"
             d="M 351.629,1447.34 H 241.348 c 0,15.68 1.117,18.79 27.082,18.79 -4.149,12.44 -21.008,42.55 -30.375,42.55 -8.293,0 -18.18,-0.46 -18.18,-19.38 0,-21.47 -36.133,-56.08 -44.891,-41.96 -13.058,21.05 22.446,14.63 22.446,65.39 0,69.44 -40.528,59.56 -40.528,98.57 0,19.52 5.395,22.15 5.395,36.11 0,18.44 -16.25,17.37 -13.09,32.66 2.184,10.56 3.895,19.04 5.164,31.81 0.906,9.07 1.195,18.72 10.609,18.33 11.059,-0.45 15.254,-19.92 32.45,-21.32 17.156,-1.39 31.785,14.61 38.425,12.32 6.586,-2.26 4.516,-20.13 0.614,-32.82 -6.137,-19.93 -19.52,-45.86 4.879,-49.76 24.398,-3.91 66.363,-7.81 96.617,-47.83 30.254,-40.01 29.137,-86.97 40.988,-101.5 39.777,-48.74 80.543,-28.73 80.543,-69.29 0,-18.15 -30.769,-31.23 -35.648,-25.37 -4.879,5.85 41.461,23.31 -10.391,43.91 -44.301,17.62 -48.258,21.21 -61.828,8.79 z" /></g></g><g
         id="g56"><g
           clip-path="url(#clipPath62)"
           id="g58"><path
             id="path64"
             style="fill:#00000a;fill-opacity:1;fill-rule:evenodd;stroke:none"
             d="M 842.43,1447.34 H 732.148 c 0,15.68 1.118,18.79 27.082,18.79 -4.148,12.44 -21.007,42.55 -30.378,42.55 -8.289,0 -18.176,-0.46 -18.176,-19.38 0,-21.47 -36.133,-56.08 -44.895,-41.96 -13.058,21.05 22.449,14.63 22.449,65.39 0,69.44 -40.527,59.56 -40.527,98.57 0,19.52 5.391,22.15 5.391,36.11 0,18.44 -16.25,17.37 -13.086,32.66 2.183,10.56 3.894,19.04 5.164,31.81 0.906,9.07 1.195,18.72 10.609,18.33 11.059,-0.45 15.25,-19.92 32.449,-21.32 17.157,-1.39 31.786,14.61 38.426,12.32 6.582,-2.26 4.516,-20.13 0.61,-32.82 -6.133,-19.93 -19.516,-45.86 4.882,-49.76 24.399,-3.91 66.364,-7.81 96.618,-47.83 30.254,-40.01 29.136,-86.97 40.988,-101.5 39.777,-48.74 80.543,-28.73 80.543,-69.29 0,-18.15 -30.77,-31.23 -35.649,-25.37 -4.878,5.85 41.461,23.31 -10.39,43.91 -44.305,17.62 -48.258,21.21 -61.828,8.79 z" /></g></g><g
         id="g66"><g
           clip-path="url(#clipPath72)"
           id="g68"><path
             id="path74"
             style="fill:#000000;fill-opacity:1;fill-rule:nonzero;stroke:none"
             d="m 826.457,869.227 c -8.898,-0.739 -18.289,-4.032 -25.754,-9.039 -3.433,-2.313 -8.723,-7.395 -11.281,-10.829 -6.309,-8.48 -10.059,-21.652 -10.758,-37.875 l -0.211,-5.257 -4.203,-0.594 c -4.379,-0.633 -12.02,-2.106 -14.262,-2.735 l -1.332,-0.386 v -28.907 l -4.801,-1.855 c -15.273,-5.957 -28.589,-14.789 -40.222,-26.699 -16.293,-16.715 -26.594,-36.934 -30.449,-59.918 -7.391,-43.727 11.492,-87.668 48.32,-112.403 8.617,-5.781 16.43,-9.707 25.926,-12.964 27.156,-9.391 55.715,-8.305 82.379,3.117 7.777,3.328 18.324,9.637 24.839,14.89 21.622,17.379 35.672,40.54 40.961,67.625 1.403,7.114 1.754,11.457 1.754,21.024 0,9.566 -0.351,13.91 -1.754,21.023 -5.886,30.063 -22.879,55.817 -47.968,72.672 -7.813,5.254 -15.239,9.074 -23.547,12.156 l -3.606,1.332 v 28.907 l -1.297,0.351 c -3.433,0.91 -8.48,1.891 -13.351,2.629 -2.942,0.453 -5.395,0.875 -5.465,0.946 -0.316,0.316 0.559,10.968 1.191,14.714 0.911,5.606 1.715,7.5 4.204,10.235 4.101,4.449 8.41,6.48 14.543,6.793 27.394,1.453 33.554,32.031 -3.856,31.047 z" /></g></g><g
         id="g76"><g
           clip-path="url(#clipPath82)"
           id="g78"><path
             id="path84"
             style="fill:#000000;fill-opacity:1;fill-rule:nonzero;stroke:none"
             d="m 593.871,491.879 c -0.566,-0.598 -8.469,-9.762 -17.531,-20.387 l -16.539,-19.289 -6.309,0.164 c -21.183,0.5 -42.965,-3.519 -62.949,-11.652 l -5.184,-2.094 -22.543,21.184 c -12.382,11.656 -22.878,21.25 -23.308,21.383 -0.899,0.234 -1.727,-0.364 -1.727,-1.262 0,-0.629 2.125,-10.891 9.629,-46.551 l 3.356,-15.937 -1.098,-0.829 c -3.121,-2.425 -9.332,-8.168 -14.047,-13.015 -10.957,-11.223 -19.32,-22.711 -26.992,-37.188 l -2.059,-3.851 -34.265,-0.067 c -23.508,-0.066 -34.43,-0.199 -34.696,-0.433 -0.765,-0.629 -0.464,-1.528 0.996,-2.688 0.762,-0.633 13.114,-9.531 27.458,-19.824 14.343,-10.293 26.199,-18.793 26.363,-18.957 0.168,-0.133 -0.031,-2.391 -0.399,-5.18 -1.293,-9.164 -1.562,-13.015 -1.527,-23.676 0,-12.617 0.832,-20.984 3.121,-31.972 0.367,-1.66 0.598,-3.055 0.563,-3.09 -0.032,-0.031 -12.082,-8.664 -26.793,-19.223 -14.711,-10.558 -27.36,-19.691 -28.121,-20.32 -1.532,-1.195 -1.696,-1.629 -0.997,-2.523 0.461,-0.664 -1.992,-0.532 45.219,-2.227 15.543,-0.562 28.391,-1.062 28.555,-1.129 0.203,-0.066 1.297,-1.691 2.461,-3.617 2.887,-4.781 8.73,-12.852 13.312,-18.363 4.317,-5.246 14.246,-15.305 18.961,-19.258 l 3.184,-2.688 -2.09,-5.945 c -1.129,-3.254 -4.285,-12.219 -6.941,-19.887 -2.688,-7.672 -6.473,-18.562 -8.465,-24.238 -1.992,-5.68 -4.715,-13.547 -6.11,-17.5 -1.394,-3.9844 -2.523,-7.4375 -2.523,-7.7031 0,-0.6953 0.894,-1.293 1.727,-1.1289 0.429,0.1015 16.101,11.621 34.863,25.602 l 34.101,25.464 5.575,-1.859 c 14.082,-4.68 29.386,-7.504 44.23,-8.066 l 5.477,-0.2 15.605,-25.765 c 8.602,-14.1799 15.84,-26.0315 16.106,-26.3323 0.562,-0.664 1.492,-0.6953 2.023,-0.0664 0.199,0.2656 0.562,1.2305 0.797,2.0938 0.265,0.8632 3.32,12.2187 6.84,25.1679 3.519,12.981 6.941,25.633 7.605,28.188 l 1.227,4.617 3.984,1.394 c 15.074,5.278 30.117,13.379 42.899,23.11 2.257,1.726 4.316,3.254 4.582,3.453 0.332,0.23 9.261,-2.625 31.41,-10.063 17.031,-5.711 31.246,-10.359 31.578,-10.359 0.297,0 0.726,0.367 0.926,0.797 0.332,0.699 0.168,1.164 -1.196,3.586 -1.261,2.16 -25.863,44.758 -29.25,50.57 l -0.765,1.359 1.629,2.59 c 10.062,15.641 17.828,34.797 21.582,53.059 0.531,2.558 1.027,4.683 1.062,4.715 0.067,0.035 2.192,0.832 4.746,1.761 2.559,0.961 11.821,4.348 20.586,7.571 8.77,3.218 18.399,6.773 21.418,7.867 3.02,1.098 5.809,2.191 6.242,2.457 0.93,0.633 0.93,1.629 -0.035,2.258 -0.664,0.465 -13.281,5.777 -42.762,18.031 l -8.5,3.551 -0.402,3.488 c -2.289,20.32 -9.691,42.699 -20.121,60.793 -1.926,3.32 -2.156,3.918 -1.793,4.484 0.234,0.364 6.742,10.723 14.512,23.043 7.769,12.317 14.176,22.676 14.277,23.008 0.067,0.332 -0.035,0.832 -0.266,1.098 -0.796,0.961 2.125,1.824 -34.164,-10.16 -10.461,-3.453 -19.191,-6.278 -19.394,-6.278 -0.164,0 -1.59,1.164 -3.152,2.59 -17.364,15.84 -36.059,27.028 -57.344,34.266 l -4.649,1.594 -0.062,4.285 c -0.067,2.324 -0.235,12.847 -0.434,23.34 -0.297,17.433 -0.363,19.125 -0.894,19.492 -0.867,0.664 -1.297,0.531 -2.391,-0.633 z" /></g></g><g
         transform="scale(10)"
         id="g86"><text
           id="text90"
           style="font-variant:normal;font-weight:normal;font-size:9.96263981px;font-family:CMB10;-inkscape-font-specification:CMB10;writing-mode:lr-tb;fill:#000000;fill-opacity:1;fill-rule:nonzero;stroke:none"
           transform="matrix(1,0,0,-1,1.31992,322.8)"><tspan
             id="tspan88"
             y="0"
             x="0 6.1199222 10.439921 15 20.039845 24.719843 29.039845 32.999844 37.799843 43.319843 46.079494 53.879345 58.319344 62.999344 65.758995 68.518646">Traversablecells</tspan></text>
<text
           id="text96"
           style="font-variant:normal;font-weight:normal;font-size:9.96263981px;font-family:CMR10;-inkscape-font-specification:CMR10;writing-mode:lr-tb;fill:#000000;fill-opacity:1;fill-rule:nonzero;stroke:none"
           transform="matrix(1,0,0,-1,114.71992,281.2801)"><tspan
             id="tspan92"
             y="0"
             x="0 6.8400006 15.119995 20.640007 24.239851 32.759781 36.599785 42.119785 46.559784 52.079784 55.919788 59.87978 64.919785 71.039513 75.479515 80.519516 83.279167 88.319153 92.279144">Empty(neutralcolor)</tspan><tspan
             id="tspan94"
             y="42.599998"
             x="0 6.8400006 15.119995 20.640007 24.239851 32.759781 36.599785 42.119785 44.879436 49.679359 54.719208 59.15921 63.119202 67.079201 72.958702 77.398705 82.438698 85.198349 90.238365 94.198357">Empty(players’color)</tspan></text>
<text
           id="text100"
           style="font-variant:normal;font-weight:normal;font-size:9.96263981px;font-family:CMB10;-inkscape-font-specification:CMB10;writing-mode:lr-tb;fill:#000000;fill-opacity:1;fill-rule:nonzero;stroke:none"
           transform="matrix(1,0,0,-1,1.31992,195.2403)"><tspan
             id="tspan98"
             y="0"
             x="0 7.7999992 12.839998 18.359999 21.719999 25.559998 29.879995 34.439842 39.479687 44.159687 48.479687 52.439686 57.239681 62.759682 65.519333 73.319183 77.759186 82.439186 85.198837 87.958488">Non-traversablecells</tspan></text>
<text
           id="text110"
           style="font-variant:normal;font-weight:normal;font-size:9.96263981px;font-family:CMR10;-inkscape-font-specification:CMR10;writing-mode:lr-tb;fill:#000000;fill-opacity:1;fill-rule:nonzero;stroke:none"
           transform="matrix(1,0,0,-1,114.71992,152.6403)"><tspan
             id="tspan102"
             y="0"
             x="0 7.1999965 12.719996 17.759996 21.719988 26.759987 31.199987 35.039993 39.47998 43.439972">Characters</tspan><tspan
             id="tspan104"
             y="42.480099"
             x="0 9.3601589 14.400159 17.159809">Wall</tspan><tspan
             id="tspan106"
             y="84.960197"
             x="0 7.1999965 12.719996 15.479648 24.359818 30.119978 35.159977 43.200054">Thinbomb</tspan><tspan
             id="tspan108"
             y="127.5602"
             x="0 5.6398425 10.679842 17.879683 23.639843 28.679842 36.719921">Fatbomb</tspan></text>
</g></g></g></svg>