<?xml version="1.0" encoding="UTF-8" standalone="no"?>
<!-- Svg Vector Icons : http://www.onlinewebfonts.com/icon -->

<svg
   xmlns:dc="http://purl.org/dc/elements/1.1/"
   xmlns:cc="http://creativecommons.org/ns#"
   xmlns:rdf="http://www.w3.org/1999/02/22-rdf-syntax-ns#"
   xmlns:svg="http://www.w3.org/2000/svg"
   xmlns="http://www.w3.org/2000/svg"
   xmlns:sodipodi="http://sodipodi.sourceforge.net/DTD/sodipodi-0.dtd"
   xmlns:inkscape="http://www.inkscape.org/namespaces/inkscape"
   version="1.1"
   x="0px"
   y="0px"
   viewBox="0 0 980.05591 477.5484"
   enable-background="new 0 0 1000 1000"
   xml:space="preserve"
   id="svg5291"
   sodipodi:docname="char_green.svg"
   inkscape:version="0.92.2 2405546, 2018-03-11"
   width="980.05591"
   height="477.5484"><defs
   id="defs5295" /><sodipodi:namedview
   pagecolor="#ffffff"
   bordercolor="#666666"
   borderopacity="1"
   objecttolerance="10"
   gridtolerance="10"
   guidetolerance="10"
   inkscape:pageopacity="0"
   inkscape:pageshadow="2"
   inkscape:window-width="1916"
   inkscape:window-height="1152"
   id="namedview5293"
   showgrid="false"
   inkscape:zoom="0.482"
   inkscape:cx="311.1699"
   inkscape:cy="306.23382"
   inkscape:window-x="1920"
   inkscape:window-y="22"
   inkscape:window-maximized="0"
   inkscape:current-layer="svg5291"
   fit-margin-top="0"
   fit-margin-left="0"
   fit-margin-right="0"
   fit-margin-bottom="0" />
<metadata
   id="metadata5253"> Svg Vector Icons : http://www.onlinewebfonts.com/icon <rdf:RDF><cc:Work
     rdf:about=""><dc:format>image/svg+xml</dc:format><dc:type
       rdf:resource="http://purl.org/dc/dcmitype/StillImage" /><dc:title></dc:title></cc:Work></rdf:RDF></metadata>
<g
   id="g5289"
   transform="translate(-10,-261.33893)"><g
     id="g5257"><path
       d="m 880.55593,728.9 c -27.4,0 -305.2,12.3 -457.2,9.6 -151.9,-2.7 -498.200003,-1.4 -394.200003,-141 0,0 47.7,-54.8 87.600003,-123.2 40.8,-69.9 128.7,-171.1 214.9,-143.7 58.9,-15 187.5,-58.9 320.3,72.5 0,0 67.1,-73.9 108.1,-80.7 0,0 15,-60.2 38.3,-60.2 23.3,0 41.1,41.1 41.1,45.2 0,4.1 30.1,8.2 38.3,1.4 8.2,-6.8 53.4,-54.8 79.4,-46.5 6,4 -20.5,56.1 -20.5,56.1 0,0 -9.6,19.2 21.2,57.5 12.3,14.9 12.3,80.1 10.9,84.9 -1.4,4.8 12.3,15.7 -2.1,34.2 0.8,21 -11.6,32.6 -25.3,34 0,0 -0.6,108.2 -40.3,142.4 0,0 89,-9.6 89,32.9 0,42.4 -82.1,24.6 -109.5,24.6 z"
       id="path5255"
       inkscape:connector-curvature="0" /></g><g
     id="g5259" /><g
     id="g5261" /><g
     id="g5263" /><g
     id="g5265" /><g
     id="g5267" /><g
     id="g5269" /><g
     id="g5271" /><g
     id="g5273" /><g
     id="g5275" /><g
     id="g5277" /><g
     id="g5279" /><g
     id="g5281" /><g
     id="g5283" /><g
     id="g5285" /><g
     id="g5287" /></g>
</svg>