<?xml version="1.0" encoding="UTF-8" standalone="no"?>
<!-- Created with Inkscape (http://www.inkscape.org/) -->

<svg
   xmlns:dc="http://purl.org/dc/elements/1.1/"
   xmlns:cc="http://creativecommons.org/ns#"
   xmlns:rdf="http://www.w3.org/1999/02/22-rdf-syntax-ns#"
   xmlns:svg="http://www.w3.org/2000/svg"
   xmlns="http://www.w3.org/2000/svg"
   xmlns:sodipodi="http://sodipodi.sourceforge.net/DTD/sodipodi-0.dtd"
   xmlns:inkscape="http://www.inkscape.org/namespaces/inkscape"
   version="1.0"
   width="390"
   height="390"
   id="svg2"
   sodipodi:docname="char_blue.svg"
   inkscape:version="0.92.2 2405546, 2018-03-11">
  <metadata
     id="metadata7">
    <rdf:RDF>
      <cc:Work
         rdf:about="">
        <dc:format>image/svg+xml</dc:format>
        <dc:type
           rdf:resource="http://purl.org/dc/dcmitype/StillImage" />
        <dc:title></dc:title>
      </cc:Work>
    </rdf:RDF>
  </metadata>
  <sodipodi:namedview
     pagecolor="#ffffff"
     bordercolor="#666666"
     borderopacity="1"
     objecttolerance="10"
     gridtolerance="10"
     guidetolerance="10"
     inkscape:pageopacity="0"
     inkscape:pageshadow="2"
     inkscape:window-width="1916"
     inkscape:window-height="1152"
     id="namedview5"
     showgrid="false"
     fit-margin-top="0"
     fit-margin-left="0"
     fit-margin-right="0"
     fit-margin-bottom="0"
     inkscape:zoom="1.3958534"
     inkscape:cx="165.98689"
     inkscape:cy="130.82301"
     inkscape:window-x="1920"
     inkscape:window-y="22"
     inkscape:window-maximized="0"
     inkscape:current-layer="svg2" />
  <defs
     id="defs5" />
  <rect
     style="opacity:1;vector-effect:none;fill:#a6cee3;fill-opacity:1;stroke:none;stroke-width:0.75923395;stroke-linecap:butt;stroke-linejoin:miter;stroke-miterlimit:4;stroke-dasharray:none;stroke-dashoffset:0;stroke-opacity:1"
     id="rect5921"
     width="390"
     height="390"
     x="0"
     y="0" />
  <g
     id="g4569"
     transform="translate(-184.53769,-390.50731)">
    <path
       inkscape:connector-curvature="0"
       id="path1891-7"
       style="fill:#00000a;fill-opacity:1;fill-rule:evenodd;stroke:none;stroke-width:1px;stroke-linecap:butt;stroke-linejoin:miter;stroke-opacity:1"
       d="m 460.42345,697.83416 h -113 c 0,-16.06359 1.14694,-19.25 27.75,-19.25 -4.25,-12.75 -21.5252,-43.59647 -31.125,-43.59647 -8.49303,0 -18.625,0.46784 -18.625,19.84647 0,22 -37.02267,57.47092 -46,43 -13.37865,-21.56558 23,-14.98941 23,-67 0,-71.1532 -41.52513,-61.02384 -41.52513,-101 0,-20 5.52513,-22.70081 5.52513,-37 0,-18.8976 -16.64813,-17.80097 -13.40901,-33.46967 2.23744,-10.82322 3.98843,-19.50289 5.29289,-32.59099 0.92557,-9.28658 1.22064,-19.18449 10.86661,-18.7865 11.3335,0.46761 15.63306,20.4168 33.24951,21.84716 17.58053,1.42745 32.5707,-14.96652 39.375,-12.625 6.74695,2.32179 4.625,20.625 0.625,33.625 -6.28684,20.43223 -20,47 5,51 25,4 68,8 99,49 31,41 29.85562,89.11665 42,104 40.75835,49.95074 82.52512,29.4417 82.52512,71 0,18.60564 -31.52512,32 -36.52512,26 -5,-6 42.48528,-23.87868 -10.64645,-45 -45.39162,-18.04441 -49.44365,-21.72792 -63.35355,-9 z" />
  </g>
</svg>
