<?xml version="1.0" encoding="UTF-8" standalone="no"?>
<svg
   xmlns:dc="http://purl.org/dc/elements/1.1/"
   xmlns:cc="http://creativecommons.org/ns#"
   xmlns:rdf="http://www.w3.org/1999/02/22-rdf-syntax-ns#"
   xmlns:svg="http://www.w3.org/2000/svg"
   xmlns="http://www.w3.org/2000/svg"
   viewBox="0 0 327.98666 303.02667"
   height="303.02667"
   width="327.98666"
   xml:space="preserve"
   id="svg2"
   version="1.1"><metadata
     id="metadata8"><rdf:RDF><cc:Work
         rdf:about=""><dc:format>image/svg+xml</dc:format><dc:type
           rdf:resource="http://purl.org/dc/dcmitype/StillImage" /></cc:Work></rdf:RDF></metadata><defs
     id="defs6"><clipPath
       id="clipPath96"
       clipPathUnits="userSpaceOnUse"><path
         id="path94"
         d="m 337.199,1393.2 h 311 v 337.027 h -311 z" /></clipPath><clipPath
       id="clipPath106"
       clipPathUnits="userSpaceOnUse"><path
         id="path104"
         d="m 1117.2,978 h 226 v 316.051 h -226 z" /></clipPath></defs><g
     transform="matrix(1.3333333,0,0,-1.3333333,0,303.02667)"
     id="g10"><g
       transform="scale(0.1)"
       id="g12"><path
         id="path14"
         style="fill:#b2df8a;fill-opacity:1;fill-rule:nonzero;stroke:none"
         d="M 1474.9,994.273 V 1277.64 L 1229.5,1419.32 984.102,1277.64 V 994.273 L 1229.5,852.59 1474.9,994.273" /><path
         id="path16"
         style="fill:none;stroke:#000000;stroke-width:4.99821997;stroke-linecap:round;stroke-linejoin:round;stroke-miterlimit:10;stroke-dasharray:none;stroke-opacity:1"
         d="M 1474.9,994.273 V 1277.64 L 1229.5,1419.32 984.102,1277.64 V 994.273 L 1229.5,852.59 Z" /><path
         id="path18"
         style="fill:#b2df8a;fill-opacity:1;fill-rule:nonzero;stroke:none"
         d="m 1229.5,1419.32 v 283.36 L 984.102,1844.36 738.699,1702.68 v -283.36 l 245.403,-141.68 245.398,141.68" /><path
         id="path20"
         style="fill:none;stroke:#000000;stroke-width:4.99821997;stroke-linecap:round;stroke-linejoin:round;stroke-miterlimit:10;stroke-dasharray:none;stroke-opacity:1"
         d="m 1229.5,1419.32 v 283.36 L 984.102,1844.36 738.699,1702.68 v -283.36 l 245.403,-141.68 z" /><path
         id="path22"
         style="fill:#b2df8a;fill-opacity:1;fill-rule:nonzero;stroke:none"
         d="m 984.102,1844.36 v 283.37 L 738.699,2269.41 493.301,2127.73 v -283.37 l 245.398,-141.68 245.403,141.68" /><path
         id="path24"
         style="fill:none;stroke:#000000;stroke-width:4.99821997;stroke-linecap:round;stroke-linejoin:round;stroke-miterlimit:10;stroke-dasharray:none;stroke-opacity:1"
         d="m 984.102,1844.36 v 283.37 L 738.699,2269.41 493.301,2127.73 v -283.37 l 245.398,-141.68 z" /><path
         id="path26"
         style="fill:#b2df8a;fill-opacity:1;fill-rule:nonzero;stroke:none"
         d="M 984.102,994.273 V 1277.64 L 738.699,1419.32 493.301,1277.64 V 994.273 L 738.699,852.59 984.102,994.273" /><path
         id="path28"
         style="fill:none;stroke:#000000;stroke-width:4.99821997;stroke-linecap:round;stroke-linejoin:round;stroke-miterlimit:10;stroke-dasharray:none;stroke-opacity:1"
         d="M 984.102,994.273 V 1277.64 L 738.699,1419.32 493.301,1277.64 V 994.273 L 738.699,852.59 Z" /><path
         id="path30"
         style="fill:#b2df8a;fill-opacity:1;fill-rule:nonzero;stroke:none"
         d="M 493.301,994.273 V 1277.64 L 247.898,1419.32 2.5,1277.64 V 994.273 L 247.898,852.59 493.301,994.273" /><path
         id="path32"
         style="fill:none;stroke:#000000;stroke-width:4.99821997;stroke-linecap:round;stroke-linejoin:round;stroke-miterlimit:10;stroke-dasharray:none;stroke-opacity:1"
         d="M 493.301,994.273 V 1277.64 L 247.898,1419.32 2.5,1277.64 V 994.273 L 247.898,852.59 Z" /><path
         id="path34"
         style="fill:#b2df8a;fill-opacity:1;fill-rule:nonzero;stroke:none"
         d="M 1229.5,569.227 V 852.59 L 984.102,994.273 738.699,852.59 V 569.227 l 245.403,-141.68 245.398,141.68" /><path
         id="path36"
         style="fill:none;stroke:#000000;stroke-width:4.99821997;stroke-linecap:round;stroke-linejoin:round;stroke-miterlimit:10;stroke-dasharray:none;stroke-opacity:1"
         d="M 1229.5,569.227 V 852.59 L 984.102,994.273 738.699,852.59 V 569.227 l 245.403,-141.68 z" /><path
         id="path38"
         style="fill:#b2df8a;fill-opacity:1;fill-rule:nonzero;stroke:none"
         d="M 984.102,144.18 V 427.547 L 738.699,569.227 493.301,427.547 V 144.18 L 738.699,2.5 984.102,144.18" /><path
         id="path40"
         style="fill:none;stroke:#000000;stroke-width:4.99821997;stroke-linecap:round;stroke-linejoin:round;stroke-miterlimit:10;stroke-dasharray:none;stroke-opacity:1"
         d="M 984.102,144.18 V 427.547 L 738.699,569.227 493.301,427.547 V 144.18 L 738.699,2.5 Z" /><path
         id="path42"
         style="fill:#b2df8a;fill-opacity:1;fill-rule:nonzero;stroke:none"
         d="M 1720.3,569.227 V 852.59 L 1474.9,994.273 1229.5,852.59 V 569.227 l 245.4,-141.68 245.4,141.68" /><path
         id="path44"
         style="fill:none;stroke:#000000;stroke-width:4.99821997;stroke-linecap:round;stroke-linejoin:round;stroke-miterlimit:10;stroke-dasharray:none;stroke-opacity:1"
         d="M 1720.3,569.227 V 852.59 L 1474.9,994.273 1229.5,852.59 V 569.227 l 245.4,-141.68 z" /><path
         id="path46"
         style="fill:#b2df8a;fill-opacity:1;fill-rule:nonzero;stroke:none"
         d="m 1965.7,994.273 v 283.367 l -245.4,141.68 -245.4,-141.68 V 994.273 l 245.4,-141.683 245.4,141.683" /><path
         id="path48"
         style="fill:none;stroke:#000000;stroke-width:4.99821997;stroke-linecap:round;stroke-linejoin:round;stroke-miterlimit:10;stroke-dasharray:none;stroke-opacity:1"
         d="m 1965.7,994.273 v 283.367 l -245.4,141.68 -245.4,-141.68 V 994.273 L 1720.3,852.59 Z" /><path
         id="path50"
         style="fill:#b2df8a;fill-opacity:1;fill-rule:nonzero;stroke:none"
         d="m 2456.5,994.273 v 283.367 l -245.4,141.68 -245.4,-141.68 V 994.273 l 245.4,-141.683 245.4,141.683" /><path
         id="path52"
         style="fill:none;stroke:#000000;stroke-width:4.99821997;stroke-linecap:round;stroke-linejoin:round;stroke-miterlimit:10;stroke-dasharray:none;stroke-opacity:1"
         d="m 2456.5,994.273 v 283.367 l -245.4,141.68 -245.4,-141.68 V 994.273 L 2211.1,852.59 Z" /><path
         id="path54"
         style="fill:#ffffff;fill-opacity:1;fill-rule:nonzero;stroke:none"
         d="m 1965.7,1844.36 v 283.37 l -245.4,141.68 -245.4,-141.68 v -283.37 l 245.4,-141.68 245.4,141.68" /><path
         id="path56"
         style="fill:none;stroke:#000000;stroke-width:4.99821997;stroke-linecap:round;stroke-linejoin:round;stroke-miterlimit:10;stroke-dasharray:none;stroke-opacity:1"
         d="m 1965.7,1844.36 v 283.37 l -245.4,141.68 -245.4,-141.68 v -283.37 l 245.4,-141.68 z" /><path
         id="path58"
         style="fill:#b2df8a;fill-opacity:1;fill-rule:nonzero;stroke:none"
         d="m 738.699,1419.32 v 283.36 L 493.301,1844.36 247.898,1702.68 v -283.36 l 245.403,-141.68 245.398,141.68" /><path
         id="path60"
         style="fill:none;stroke:#000000;stroke-width:4.99821997;stroke-linecap:round;stroke-linejoin:round;stroke-miterlimit:10;stroke-dasharray:none;stroke-opacity:1"
         d="m 738.699,1419.32 v 283.36 L 493.301,1844.36 247.898,1702.68 v -283.36 l 245.403,-141.68 z" /><path
         id="path62"
         style="fill:#ffffff;fill-opacity:1;fill-rule:nonzero;stroke:none"
         d="M 738.699,569.227 V 852.59 L 493.301,994.273 247.898,852.59 V 569.227 l 245.403,-141.68 245.398,141.68" /><path
         id="path64"
         style="fill:none;stroke:#000000;stroke-width:4.99821997;stroke-linecap:round;stroke-linejoin:round;stroke-miterlimit:10;stroke-dasharray:none;stroke-opacity:1"
         d="M 738.699,569.227 V 852.59 L 493.301,994.273 247.898,852.59 V 569.227 l 245.403,-141.68 z" /><path
         id="path66"
         style="fill:#ffffff;fill-opacity:1;fill-rule:nonzero;stroke:none"
         d="M 1474.9,144.18 V 427.547 L 1229.5,569.227 984.102,427.547 V 144.18 L 1229.5,2.5 1474.9,144.18" /><path
         id="path68"
         style="fill:none;stroke:#000000;stroke-width:4.99821997;stroke-linecap:round;stroke-linejoin:round;stroke-miterlimit:10;stroke-dasharray:none;stroke-opacity:1"
         d="M 1474.9,144.18 V 427.547 L 1229.5,569.227 984.102,427.547 V 144.18 L 1229.5,2.5 Z" /><path
         id="path70"
         style="fill:#ffffff;fill-opacity:1;fill-rule:nonzero;stroke:none"
         d="M 2211.1,569.227 V 852.59 L 1965.7,994.273 1720.3,852.59 V 569.227 l 245.4,-141.68 245.4,141.68" /><path
         id="path72"
         style="fill:none;stroke:#000000;stroke-width:4.99821997;stroke-linecap:round;stroke-linejoin:round;stroke-miterlimit:10;stroke-dasharray:none;stroke-opacity:1"
         d="M 2211.1,569.227 V 852.59 L 1965.7,994.273 1720.3,852.59 V 569.227 l 245.4,-141.68 z" /><path
         id="path74"
         style="fill:#ffffff;fill-opacity:1;fill-rule:nonzero;stroke:none"
         d="m 2211.1,1419.32 v 283.36 l -245.4,141.68 -245.4,-141.68 v -283.36 l 245.4,-141.68 245.4,141.68" /><path
         id="path76"
         style="fill:none;stroke:#000000;stroke-width:4.99821997;stroke-linecap:round;stroke-linejoin:round;stroke-miterlimit:10;stroke-dasharray:none;stroke-opacity:1"
         d="m 2211.1,1419.32 v 283.36 l -245.4,141.68 -245.4,-141.68 v -283.36 l 245.4,-141.68 z" /><path
         id="path78"
         style="fill:#ffffff;fill-opacity:1;fill-rule:nonzero;stroke:none"
         d="m 1474.9,1844.36 v 283.37 l -245.4,141.68 -245.398,-141.68 v -283.37 l 245.398,-141.68 245.4,141.68" /><path
         id="path80"
         style="fill:none;stroke:#000000;stroke-width:4.99821997;stroke-linecap:round;stroke-linejoin:round;stroke-miterlimit:10;stroke-dasharray:none;stroke-opacity:1"
         d="m 1474.9,1844.36 v 283.37 L 1229.5,2269.41 984.102,2127.73 V 1844.36 L 1229.5,1702.68 Z" /><path
         id="path82"
         style="fill:#1a1a1a;fill-opacity:1;fill-rule:nonzero;stroke:none"
         d="m 1965.7,144.18 v 283.367 l -245.4,141.68 -245.4,-141.68 V 144.18 L 1720.3,2.5 1965.7,144.18" /><path
         id="path84"
         style="fill:none;stroke:#000000;stroke-width:4.99821997;stroke-linecap:round;stroke-linejoin:round;stroke-miterlimit:10;stroke-dasharray:none;stroke-opacity:1"
         d="m 1965.7,144.18 v 283.367 l -245.4,141.68 -245.4,-141.68 V 144.18 L 1720.3,2.5 Z" /><path
         id="path86"
         style="fill:#1a1a1a;fill-opacity:1;fill-rule:nonzero;stroke:none"
         d="m 1720.3,1419.32 v 283.36 l -245.4,141.68 -245.4,-141.68 v -283.36 l 245.4,-141.68 245.4,141.68" /><path
         id="path88"
         style="fill:none;stroke:#000000;stroke-width:4.99821997;stroke-linecap:round;stroke-linejoin:round;stroke-miterlimit:10;stroke-dasharray:none;stroke-opacity:1"
         d="m 1720.3,1419.32 v 283.36 l -245.4,141.68 -245.4,-141.68 v -283.36 l 245.4,-141.68 z" /><g
         id="g90"><g
           clip-path="url(#clipPath96)"
           id="g92"><path
             id="path98"
             style="fill:#00000a;fill-opacity:1;fill-rule:evenodd;stroke:none"
             d="M 540.027,1447.34 H 429.746 c 0,15.68 1.117,18.79 27.082,18.79 -4.148,12.44 -21.008,42.55 -30.375,42.55 -8.289,0 -18.176,-0.46 -18.176,-19.38 0,-21.47 -36.136,-56.08 -44.894,-41.96 -13.059,21.05 22.445,14.63 22.445,65.39 0,69.44 -40.523,59.56 -40.523,98.57 0,19.52 5.39,22.15 5.39,36.11 0,18.44 -16.25,17.37 -13.09,32.66 2.188,10.56 3.895,19.04 5.165,31.81 0.906,9.07 1.195,18.72 10.609,18.33 11.062,-0.45 15.254,-19.92 32.449,-21.32 17.156,-1.39 31.785,14.61 38.43,12.32 6.582,-2.26 4.512,-20.13 0.609,-32.82 -6.137,-19.93 -19.519,-45.86 4.879,-49.76 24.399,-3.91 66.363,-7.81 96.617,-47.83 30.254,-40.01 29.137,-86.97 40.992,-101.5 39.774,-48.74 80.54,-28.73 80.54,-69.29 0,-18.15 -30.766,-31.23 -35.649,-25.37 -4.879,5.85 41.465,23.31 -10.387,43.91 -44.304,17.62 -48.257,21.21 -61.832,8.79 z" /></g></g><g
         id="g100"><g
           clip-path="url(#clipPath106)"
           id="g102"><path
             id="path108"
             style="fill:#000000;fill-opacity:1;fill-rule:nonzero;stroke:none"
             d="m 1262.06,1294.03 c -8.9,-0.74 -18.29,-4.03 -25.76,-9.04 -3.43,-2.31 -8.72,-7.4 -11.28,-10.83 -6.31,-8.48 -10.06,-21.65 -10.75,-37.88 l -0.22,-5.25 -4.2,-0.6 c -4.38,-0.63 -12.02,-2.1 -14.26,-2.73 l -1.33,-0.39 v -28.9 l -4.8,-1.86 c -15.28,-5.96 -28.59,-14.79 -40.23,-26.7 -16.29,-16.71 -26.59,-36.93 -30.44,-59.92 -7.4,-43.73 11.49,-87.66 48.31,-112.403 8.62,-5.781 16.44,-9.703 25.93,-12.961 27.16,-9.39 55.71,-8.304 82.38,3.118 7.77,3.328 18.32,9.636 24.84,14.886 21.62,17.38 35.67,40.54 40.96,67.63 1.4,7.11 1.75,11.46 1.75,21.02 0,9.57 -0.35,13.91 -1.75,21.03 -5.89,30.06 -22.88,55.81 -47.97,72.67 -7.81,5.25 -15.24,9.07 -23.54,12.15 l -3.61,1.34 v 28.9 l -1.3,0.35 c -3.43,0.91 -8.48,1.89 -13.35,2.63 -2.94,0.46 -5.4,0.88 -5.47,0.95 -0.31,0.31 0.57,10.96 1.2,14.71 0.91,5.61 1.71,7.5 4.2,10.23 4.1,4.45 8.41,6.49 14.54,6.8 27.39,1.45 33.56,32.03 -3.85,31.05 z" /></g></g><g
         transform="scale(10)"
         id="g110"><text
           id="text114"
           style="font-variant:normal;font-weight:normal;font-size:11.9552002px;font-family:CMR12;-inkscape-font-specification:CMR12;writing-mode:lr-tb;fill:#ffffff;fill-opacity:1;fill-rule:nonzero;stroke:none"
           transform="matrix(1,0,0,-1,120.12,102.36)"><tspan
             id="tspan112"
             y="0"
             x="0">0</tspan></text>
</g></g></g></svg>