<?xml version="1.0" encoding="UTF-8" standalone="no"?>
<svg
   xmlns:dc="http://purl.org/dc/elements/1.1/"
   xmlns:cc="http://creativecommons.org/ns#"
   xmlns:rdf="http://www.w3.org/1999/02/22-rdf-syntax-ns#"
   xmlns:svg="http://www.w3.org/2000/svg"
   xmlns="http://www.w3.org/2000/svg"
   viewBox="0 0 276.50668 132.94667"
   height="132.94667"
   width="276.50668"
   xml:space="preserve"
   id="svg2"
   version="1.1"><metadata
     id="metadata8"><rdf:RDF><cc:Work
         rdf:about=""><dc:format>image/svg+xml</dc:format><dc:type
           rdf:resource="http://purl.org/dc/dcmitype/StillImage" /></cc:Work></rdf:RDF></metadata><defs
     id="defs6"><clipPath
       id="clipPath40"
       clipPathUnits="userSpaceOnUse"><path
         id="path38"
         d="m 814.801,541.199 h 340 v 340 h -340 z" /></clipPath><clipPath
       id="clipPath52"
       clipPathUnits="userSpaceOnUse"><path
         id="path50"
         d="m 106.801,217.199 h 283 v 138.039 h -283 z" /></clipPath></defs><g
     transform="matrix(1.3333333,0,0,-1.3333333,0,132.94667)"
     id="g10"><g
       transform="scale(0.1)"
       id="g12"><path
         id="path14"
         style="fill:#ffffff;fill-opacity:1;fill-rule:nonzero;stroke:none"
         d="M 984.098,144.18 V 427.543 L 738.695,569.227 493.297,427.543 V 144.18 L 738.695,2.5 984.098,144.18" /><path
         id="path16"
         style="fill:none;stroke:#000000;stroke-width:4.99819994;stroke-linecap:round;stroke-linejoin:round;stroke-miterlimit:10;stroke-dasharray:none;stroke-opacity:1"
         d="M 984.098,144.18 V 427.543 L 738.695,569.227 493.297,427.543 V 144.18 L 738.695,2.5 Z" /><path
         id="path18"
         style="fill:#a6cee3;fill-opacity:1;fill-rule:nonzero;stroke:none"
         d="M 1474.89,144.18 V 427.543 L 1229.5,569.227 984.098,427.543 V 144.18 L 1229.5,2.5 1474.89,144.18" /><path
         id="path20"
         style="fill:none;stroke:#000000;stroke-width:4.99819994;stroke-linecap:round;stroke-linejoin:round;stroke-miterlimit:10;stroke-dasharray:none;stroke-opacity:1"
         d="M 1474.89,144.18 V 427.543 L 1229.5,569.227 984.098,427.543 V 144.18 L 1229.5,2.5 Z" /><path
         id="path22"
         style="fill:#a6cee3;fill-opacity:1;fill-rule:nonzero;stroke:none"
         d="M 1229.5,569.227 V 852.586 L 984.098,994.27 738.695,852.586 V 569.227 L 984.098,427.543 1229.5,569.227" /><path
         id="path24"
         style="fill:none;stroke:#000000;stroke-width:4.99819994;stroke-linecap:round;stroke-linejoin:round;stroke-miterlimit:10;stroke-dasharray:none;stroke-opacity:1"
         d="M 1229.5,569.227 V 852.586 L 984.098,994.27 738.695,852.586 V 569.227 L 984.098,427.543 Z" /><path
         id="path26"
         style="fill:#ffffff;fill-opacity:1;fill-rule:nonzero;stroke:none"
         d="M 738.695,569.227 V 852.586 L 493.297,994.27 247.898,852.586 V 569.227 L 493.297,427.543 738.695,569.227" /><path
         id="path28"
         style="fill:none;stroke:#000000;stroke-width:4.99819994;stroke-linecap:round;stroke-linejoin:round;stroke-miterlimit:10;stroke-dasharray:none;stroke-opacity:1"
         d="M 738.695,569.227 V 852.586 L 493.297,994.27 247.898,852.586 V 569.227 L 493.297,427.543 Z" /><path
         id="path30"
         style="fill:#b2df8a;fill-opacity:1;fill-rule:nonzero;stroke:none"
         d="M 493.297,144.18 V 427.543 L 247.898,569.227 2.5,427.543 V 144.18 L 247.898,2.5 493.297,144.18" /><path
         id="path32"
         style="fill:none;stroke:#000000;stroke-width:4.99819994;stroke-linecap:round;stroke-linejoin:round;stroke-miterlimit:10;stroke-dasharray:none;stroke-opacity:1"
         d="M 493.297,144.18 V 427.543 L 247.898,569.227 2.5,427.543 V 144.18 L 247.898,2.5 Z" /><g
         id="g34"><g
           clip-path="url(#clipPath40)"
           id="g36"><path
             id="path42"
             style="fill:#a6cee3;fill-opacity:1;fill-rule:nonzero;stroke:none"
             d="m 814.801,541.781 h 339.418 V 881.199 H 814.801 Z" /><path
             id="path44"
             style="fill:#00000a;fill-opacity:1;fill-rule:evenodd;stroke:none"
             d="m 1054.91,613.73 h -98.351 c 0,13.981 1,16.754 24.152,16.754 -3.699,11.098 -18.734,37.946 -27.086,37.946 -7.395,0 -16.211,-0.41 -16.211,-17.278 0,-19.144 -32.219,-50.015 -40.035,-37.422 -11.645,18.77 20.016,13.047 20.016,58.309 0,61.93 -36.137,53.113 -36.137,87.902 0,17.407 4.808,19.758 4.808,32.204 0,16.449 -14.488,15.492 -11.668,29.125 1.946,9.421 3.469,16.976 4.606,28.367 0.801,8.082 1.059,16.695 9.457,16.351 9.863,-0.41 13.605,-17.769 28.934,-19.015 15.304,-1.243 28.351,13.027 34.269,10.988 5.871,-2.023 4.027,-17.949 0.543,-29.266 -5.469,-17.781 -17.406,-40.902 4.352,-44.382 21.757,-3.485 59.181,-6.965 86.161,-42.649 26.98,-35.68 25.98,-77.555 36.55,-90.512 35.48,-43.468 71.83,-25.621 71.83,-61.789 0,-16.191 -27.44,-27.851 -31.79,-22.629 -4.35,5.223 36.97,20.782 -9.27,39.164 -39.5,15.707 -43.03,18.911 -55.13,7.832 z" /></g></g><g
         id="g46"><g
           clip-path="url(#clipPath52)"
           id="g48"><path
             id="path54"
             style="fill:#000000;fill-opacity:1;fill-rule:nonzero;stroke:none"
             d="m 357.855,220.402 c -7.902,0 -88.015,-3.547 -131.851,-2.769 -43.805,0.781 -143.672,0.406 -113.68,40.664 0,0 13.754,15.805 25.262,35.527 11.766,20.16 37.117,49.344 61.973,41.442 16.988,4.328 54.074,16.988 92.371,-20.907 0,0 19.351,21.313 31.175,23.27 0,0 4.325,17.363 11.043,17.363 6.719,0 11.856,-11.855 11.856,-13.035 0,-1.184 8.68,-2.363 11.043,-0.406 2.363,1.961 15.398,15.804 22.898,13.41 1.731,-1.152 -5.914,-16.176 -5.914,-16.176 0,0 -2.765,-5.539 6.114,-16.582 3.546,-4.297 3.546,-23.101 3.144,-24.484 -0.402,-1.383 3.547,-4.528 -0.605,-9.864 0.23,-6.054 -3.344,-9.402 -7.297,-9.804 0,0 -0.172,-31.203 -11.621,-41.067 0,0 25.668,2.77 25.668,-9.488 0,-12.226 -23.676,-7.094 -31.579,-7.094 z" /></g></g><g
         transform="scale(10)"
         id="g56"><text
           id="text60"
           style="font-variant:normal;font-size:11.9552002px;font-family:'Nimbus Sans';-inkscape-font-specification:NimbusSanL-Regu;writing-mode:lr-tb;fill:#000000;fill-opacity:1;fill-rule:nonzero;stroke:none"
           transform="matrix(1,0,0,-1,155.4,81.1199)"><tspan
             id="tspan58"
             y="0"
             x="0 3.360008 9.9600286 14.160203 24.240313">turn1</tspan></text>
</g><g
         transform="scale(10)"
         id="g62"><text
           id="text68"
           style="font-variant:normal;font-size:11.9552002px;font-family:'Nimbus Sans';-inkscape-font-specification:NimbusSanL-Regu;writing-mode:lr-tb;fill:#9ec4d8;fill-opacity:1;fill-rule:nonzero;stroke:none"
           transform="matrix(1,0,0,-1,155.4,45.7199)"><tspan
             id="tspan64"
             y="0"
             x="0 6.0000124 12.600033 19.200054 25.800074 29.160082 36.720024">count:2</tspan><tspan
             id="tspan66"
             y="35.400002"
             x="0 6.0000124 12.000025 18.600044 22.560057 29.160078 36.72002">score:3</tspan></text>
</g><g
         transform="scale(10)"
         id="g70"><text
           id="text76"
           style="font-variant:normal;font-size:11.9552002px;font-family:'Nimbus Sans';-inkscape-font-specification:NimbusSanL-Regu;writing-mode:lr-tb;fill:#a9d483;fill-opacity:1;fill-rule:nonzero;stroke:none"
           transform="matrix(1,0,0,-1,155.4,59.8801)"><tspan
             id="tspan72"
             y="0"
             x="0 6.0000124 12.600033 19.200054 25.800074 29.160082 36.720024">count:1</tspan><tspan
             id="tspan74"
             y="35.400002"
             x="0 6.0000124 12.000025 18.600044 22.560057 29.160078 36.72002">score:2</tspan></text>
</g></g></g></svg>