<?xml version="1.0" encoding="UTF-8" standalone="no"?>
<svg
   xmlns:dc="http://purl.org/dc/elements/1.1/"
   xmlns:cc="http://creativecommons.org/ns#"
   xmlns:rdf="http://www.w3.org/1999/02/22-rdf-syntax-ns#"
   xmlns:svg="http://www.w3.org/2000/svg"
   xmlns="http://www.w3.org/2000/svg"
   viewBox="0 0 298.38666 132.94667"
   height="132.94667"
   width="298.38666"
   xml:space="preserve"
   id="svg2"
   version="1.1"><metadata
     id="metadata8"><rdf:RDF><cc:Work
         rdf:about=""><dc:format>image/svg+xml</dc:format><dc:type
           rdf:resource="http://purl.org/dc/dcmitype/StillImage" /></cc:Work></rdf:RDF></metadata><defs
     id="defs6"><clipPath
       id="clipPath40"
       clipPathUnits="userSpaceOnUse"><path
         id="path38"
         d="m 568.801,116.402 h 340 v 339.996 h -340 z" /></clipPath><clipPath
       id="clipPath52"
       clipPathUnits="userSpaceOnUse"><path
         id="path50"
         d="m 106.801,217.199 h 283 v 138.039 h -283 z" /></clipPath></defs><g
     transform="matrix(1.3333333,0,0,-1.3333333,0,132.94667)"
     id="g10"><g
       transform="scale(0.1)"
       id="g12"><path
         id="path14"
         style="fill:#1f78b4;fill-opacity:1;fill-rule:nonzero;stroke:none"
         d="M 984.059,144.176 V 427.527 L 738.668,569.203 493.277,427.527 V 144.176 L 738.668,2.5 984.059,144.176" /><path
         id="path16"
         style="fill:none;stroke:#000000;stroke-width:4.99800014;stroke-linecap:round;stroke-linejoin:round;stroke-miterlimit:10;stroke-dasharray:none;stroke-opacity:1"
         d="M 984.059,144.176 V 427.527 L 738.668,569.203 493.277,427.527 V 144.176 L 738.668,2.5 Z" /><path
         id="path18"
         style="fill:#1f78b4;fill-opacity:1;fill-rule:nonzero;stroke:none"
         d="M 1474.84,144.176 V 427.527 L 1229.45,569.203 984.059,427.527 V 144.176 L 1229.45,2.5 1474.84,144.176" /><path
         id="path20"
         style="fill:none;stroke:#000000;stroke-width:4.99800014;stroke-linecap:round;stroke-linejoin:round;stroke-miterlimit:10;stroke-dasharray:none;stroke-opacity:1"
         d="M 1474.84,144.176 V 427.527 L 1229.45,569.203 984.059,427.527 V 144.176 L 1229.45,2.5 Z" /><path
         id="path22"
         style="fill:#1f78b4;fill-opacity:1;fill-rule:nonzero;stroke:none"
         d="M 1229.45,569.203 V 852.555 L 984.059,994.23 738.668,852.555 V 569.203 L 984.059,427.527 1229.45,569.203" /><path
         id="path24"
         style="fill:none;stroke:#000000;stroke-width:4.99800014;stroke-linecap:round;stroke-linejoin:round;stroke-miterlimit:10;stroke-dasharray:none;stroke-opacity:1"
         d="M 1229.45,569.203 V 852.555 L 984.059,994.23 738.668,852.555 V 569.203 L 984.059,427.527 Z" /><path
         id="path26"
         style="fill:#ffffff;fill-opacity:1;fill-rule:nonzero;stroke:none"
         d="M 738.668,569.203 V 852.555 L 493.277,994.23 247.887,852.555 V 569.203 l 245.39,-141.676 245.391,141.676" /><path
         id="path28"
         style="fill:none;stroke:#000000;stroke-width:4.99800014;stroke-linecap:round;stroke-linejoin:round;stroke-miterlimit:10;stroke-dasharray:none;stroke-opacity:1"
         d="M 738.668,569.203 V 852.555 L 493.277,994.23 247.887,852.555 V 569.203 l 245.39,-141.676 z" /><path
         id="path30"
         style="fill:#b2df8a;fill-opacity:1;fill-rule:nonzero;stroke:none"
         d="M 493.277,144.176 V 427.527 L 247.887,569.203 2.5,427.527 V 144.176 L 247.887,2.5 493.277,144.176" /><path
         id="path32"
         style="fill:none;stroke:#000000;stroke-width:4.99800014;stroke-linecap:round;stroke-linejoin:round;stroke-miterlimit:10;stroke-dasharray:none;stroke-opacity:1"
         d="M 493.277,144.176 V 427.527 L 247.887,569.203 2.5,427.527 V 144.176 L 247.887,2.5 Z" /><g
         id="g34"><g
           clip-path="url(#clipPath40)"
           id="g36"><path
             id="path42"
             style="fill:#1f78b4;fill-opacity:1;fill-rule:nonzero;stroke:none"
             d="M 568.801,116.98 H 908.219 V 456.398 H 568.801 Z" /><path
             id="path44"
             style="fill:#00000a;fill-opacity:1;fill-rule:evenodd;stroke:none"
             d="m 808.906,188.93 h -98.347 c 0,13.98 1,16.754 24.152,16.754 -3.699,11.097 -18.734,37.945 -27.086,37.945 -7.395,0 -16.211,-0.41 -16.211,-17.274 0,-19.148 -32.219,-50.019 -40.035,-37.425 -11.645,18.773 20.016,13.047 20.016,58.312 0,61.926 -36.137,53.11 -36.137,87.899 0,17.406 4.808,19.761 4.808,32.203 0,16.449 -14.488,15.492 -11.668,29.129 1.946,9.418 3.469,16.972 4.606,28.367 0.801,8.082 1.059,16.695 9.457,16.348 9.863,-0.407 13.605,-17.77 28.934,-19.016 15.304,-1.242 28.351,13.027 34.269,10.988 5.871,-2.023 4.027,-17.949 0.543,-29.262 -5.469,-17.785 -17.406,-40.906 4.352,-44.386 21.757,-3.481 59.183,-6.965 86.16,-42.645 26.98,-35.683 25.984,-77.558 36.554,-90.512 35.473,-43.472 71.825,-25.625 71.825,-61.792 0,-16.192 -27.438,-27.852 -31.789,-22.629 -4.352,5.222 36.972,20.785 -9.266,39.164 -39.504,15.707 -43.031,18.91 -55.137,7.832 z" /></g></g><g
         id="g46"><g
           clip-path="url(#clipPath52)"
           id="g48"><path
             id="path54"
             style="fill:#000000;fill-opacity:1;fill-rule:nonzero;stroke:none"
             d="m 357.855,220.402 c -7.902,0 -88.015,-3.547 -131.851,-2.769 -43.805,0.781 -143.672,0.406 -113.68,40.664 0,0 13.754,15.805 25.262,35.527 11.766,20.16 37.117,49.344 61.973,41.442 16.988,4.328 54.074,16.988 92.371,-20.907 0,0 19.351,21.313 31.175,23.27 0,0 4.325,17.363 11.043,17.363 6.719,0 11.856,-11.855 11.856,-13.035 0,-1.184 8.68,-2.363 11.043,-0.406 2.363,1.961 15.398,15.804 22.898,13.41 1.731,-1.152 -5.914,-16.176 -5.914,-16.176 0,0 -2.765,-5.539 6.114,-16.582 3.546,-4.297 3.546,-23.101 3.144,-24.484 -0.402,-1.383 3.547,-4.528 -0.605,-9.864 0.23,-6.054 -3.344,-9.402 -7.297,-9.804 0,0 -0.172,-31.203 -11.621,-41.067 0,0 25.668,2.77 25.668,-9.488 0,-12.226 -23.676,-7.094 -31.579,-7.094 z" /></g></g><g
         transform="scale(10)"
         id="g56"><text
           id="text68"
           style="font-variant:normal;font-size:9.96263981px;font-family:'Nimbus Sans';-inkscape-font-specification:NimbusSanL-Regu;writing-mode:lr-tb;fill:#000000;fill-opacity:1;fill-rule:nonzero;stroke:none"
           transform="matrix(1,0,0,-1,154.8,81.8402)"><tspan
             id="tspan58"
             y="0"
             x="0 2.7599947 8.2799969 11.880075 20.280066">turn2</tspan><tspan
             id="tspan60"
             y="35.520302"
             x="0 6.6000004 8.7599974 14.279987 22.799988 28.319977 33.359974 38.879967 41.039974 43.19997 48.239971 54.360119">Blue#cells:3</tspan><tspan
             id="tspan62"
             y="70.920303"
             x="0 6.6000004 8.7599974 14.279987 22.799988 27.839987 32.879986 38.399975 41.759979 47.279968 53.280048">Bluescore:6</tspan><tspan
             id="tspan64"
             y="21.3601"
             x="0 7.8000064 11.160009 16.679998 22.200001 30.48007 36.000061 41.040058 46.560047 48.720058 50.880054 55.92004 62.160141">Green#cells:1</tspan><tspan
             id="tspan66"
             y="56.880001"
             x="0 7.8000064 11.160009 16.679998 22.200001 30.48007 35.520069 40.56007 46.080059 49.44006 54.960075 61.080074">Greenscore:3</tspan></text>
</g></g></g></svg>