<?xml version="1.0" encoding="UTF-8" standalone="no"?>
<svg
   xmlns:dc="http://purl.org/dc/elements/1.1/"
   xmlns:cc="http://creativecommons.org/ns#"
   xmlns:rdf="http://www.w3.org/1999/02/22-rdf-syntax-ns#"
   xmlns:svg="http://www.w3.org/2000/svg"
   xmlns="http://www.w3.org/2000/svg"
   viewBox="0 0 276.50668 132.94667"
   height="132.94667"
   width="276.50668"
   xml:space="preserve"
   id="svg2"
   version="1.1"><metadata
     id="metadata8"><rdf:RDF><cc:Work
         rdf:about=""><dc:format>image/svg+xml</dc:format><dc:type
           rdf:resource="http://purl.org/dc/dcmitype/StillImage" /></cc:Work></rdf:RDF></metadata><defs
     id="defs6" /><g
     transform="matrix(1.3333333,0,0,-1.3333333,0,132.94667)"
     id="g10"><g
       transform="scale(0.1)"
       id="g12"><path
         id="path14"
         style="fill:#ffffff;fill-opacity:1;fill-rule:nonzero;stroke:none"
         d="M 984.098,144.18 V 427.543 L 738.695,569.227 493.297,427.543 V 144.18 L 738.695,2.5 984.098,144.18" /><path
         id="path16"
         style="fill:none;stroke:#000000;stroke-width:4.99819994;stroke-linecap:round;stroke-linejoin:round;stroke-miterlimit:10;stroke-dasharray:none;stroke-opacity:1"
         d="M 984.098,144.18 V 427.543 L 738.695,569.227 493.297,427.543 V 144.18 L 738.695,2.5 Z" /><path
         id="path18"
         style="fill:#a6cee3;fill-opacity:1;fill-rule:nonzero;stroke:none"
         d="M 1474.89,144.18 V 427.543 L 1229.5,569.227 984.098,427.543 V 144.18 L 1229.5,2.5 1474.89,144.18" /><path
         id="path20"
         style="fill:none;stroke:#000000;stroke-width:4.99819994;stroke-linecap:round;stroke-linejoin:round;stroke-miterlimit:10;stroke-dasharray:none;stroke-opacity:1"
         d="M 1474.89,144.18 V 427.543 L 1229.5,569.227 984.098,427.543 V 144.18 L 1229.5,2.5 Z" /><path
         id="path22"
         style="fill:#ffffff;fill-opacity:1;fill-rule:nonzero;stroke:none"
         d="M 1229.5,569.227 V 852.586 L 984.098,994.27 738.695,852.586 V 569.227 L 984.098,427.543 1229.5,569.227" /><path
         id="path24"
         style="fill:none;stroke:#000000;stroke-width:4.99819994;stroke-linecap:round;stroke-linejoin:round;stroke-miterlimit:10;stroke-dasharray:none;stroke-opacity:1"
         d="M 1229.5,569.227 V 852.586 L 984.098,994.27 738.695,852.586 V 569.227 L 984.098,427.543 Z" /><path
         id="path26"
         style="fill:#ffffff;fill-opacity:1;fill-rule:nonzero;stroke:none"
         d="M 738.695,569.227 V 852.586 L 493.297,994.27 247.898,852.586 V 569.227 L 493.297,427.543 738.695,569.227" /><path
         id="path28"
         style="fill:none;stroke:#000000;stroke-width:4.99819994;stroke-linecap:round;stroke-linejoin:round;stroke-miterlimit:10;stroke-dasharray:none;stroke-opacity:1"
         d="M 738.695,569.227 V 852.586 L 493.297,994.27 247.898,852.586 V 569.227 L 493.297,427.543 Z" /><path
         id="path30"
         style="fill:#b2df8a;fill-opacity:1;fill-rule:nonzero;stroke:none"
         d="M 493.297,144.18 V 427.543 L 247.898,569.227 2.5,427.543 V 144.18 L 247.898,2.5 493.297,144.18" /><path
         id="path32"
         style="fill:none;stroke:#000000;stroke-width:4.99819994;stroke-linecap:round;stroke-linejoin:round;stroke-miterlimit:10;stroke-dasharray:none;stroke-opacity:1"
         d="M 493.297,144.18 V 427.543 L 247.898,569.227 2.5,427.543 V 144.18 L 247.898,2.5 Z" /><g
         transform="scale(10)"
         id="g34"><text
           id="text38"
           style="font-variant:normal;font-size:11.9552002px;font-family:'Nimbus Sans';-inkscape-font-specification:NimbusSanL-Regu;writing-mode:lr-tb;fill:#000000;fill-opacity:1;fill-rule:nonzero;stroke:none"
           transform="matrix(1,0,0,-1,155.4,81.1199)"><tspan
             id="tspan36"
             y="0"
             x="0 3.360008 9.9600286 14.160203 24.240313">turn0</tspan></text>
</g><g
         transform="scale(10)"
         id="g40"><text
           id="text46"
           style="font-variant:normal;font-size:11.9552002px;font-family:'Nimbus Sans';-inkscape-font-specification:NimbusSanL-Regu;writing-mode:lr-tb;fill:#a6cee3;fill-opacity:1;fill-rule:nonzero;stroke:none"
           transform="matrix(1,0,0,-1,155.4,45.7199)"><tspan
             id="tspan42"
             y="0"
             x="0 6.0000124 12.600033 19.200054 25.800074 29.160082 36.720024">count:1</tspan><tspan
             id="tspan44"
             y="35.400002"
             x="0 6.0000124 12.000025 18.600044 22.560057 29.160078 36.72002">score:1</tspan></text>
</g><g
         transform="scale(10)"
         id="g48"><text
           id="text54"
           style="font-variant:normal;font-size:11.9552002px;font-family:'Nimbus Sans';-inkscape-font-specification:NimbusSanL-Regu;writing-mode:lr-tb;fill:#b2df8a;fill-opacity:1;fill-rule:nonzero;stroke:none"
           transform="matrix(1,0,0,-1,155.4,59.8801)"><tspan
             id="tspan50"
             y="0"
             x="0 6.0000124 12.600033 19.200054 25.800074 29.160082 36.720024">count:1</tspan><tspan
             id="tspan52"
             y="35.400002"
             x="0 6.0000124 12.000025 18.600044 22.560057 29.160078 36.72002">score:1</tspan></text>
</g></g></g></svg>