<?xml version="1.0" encoding="UTF-8" standalone="no"?>
<svg
   xmlns:dc="http://purl.org/dc/elements/1.1/"
   xmlns:cc="http://creativecommons.org/ns#"
   xmlns:rdf="http://www.w3.org/1999/02/22-rdf-syntax-ns#"
   xmlns:svg="http://www.w3.org/2000/svg"
   xmlns="http://www.w3.org/2000/svg"
   viewBox="0 0 276.50668 132.94667"
   height="132.94667"
   width="276.50668"
   xml:space="preserve"
   id="svg2"
   version="1.1"><metadata
     id="metadata8"><rdf:RDF><cc:Work
         rdf:about=""><dc:format>image/svg+xml</dc:format><dc:type
           rdf:resource="http://purl.org/dc/dcmitype/StillImage" /></cc:Work></rdf:RDF></metadata><defs
     id="defs6"><clipPath
       id="clipPath40"
       clipPathUnits="userSpaceOnUse"><path
         id="path38"
         d="m 1059.6,116.402 h 340 v 339.996 h -340 z" /></clipPath><clipPath
       id="clipPath52"
       clipPathUnits="userSpaceOnUse"><path
         id="path50"
         d="m 106.801,217.199 h 283 v 138.039 h -283 z" /></clipPath></defs><g
     transform="matrix(1.3333333,0,0,-1.3333333,0,132.94667)"
     id="g10"><g
       transform="scale(0.1)"
       id="g12"><path
         id="path14"
         style="fill:#ffffff;fill-opacity:1;fill-rule:nonzero;stroke:none"
         d="M 984.098,144.18 V 427.543 L 738.695,569.227 493.297,427.543 V 144.18 L 738.695,2.5 984.098,144.18" /><path
         id="path16"
         style="fill:none;stroke:#000000;stroke-width:4.99819994;stroke-linecap:round;stroke-linejoin:round;stroke-miterlimit:10;stroke-dasharray:none;stroke-opacity:1"
         d="M 984.098,144.18 V 427.543 L 738.695,569.227 493.297,427.543 V 144.18 L 738.695,2.5 Z" /><path
         id="path18"
         style="fill:#a6cee3;fill-opacity:1;fill-rule:nonzero;stroke:none"
         d="M 1474.89,144.18 V 427.543 L 1229.5,569.227 984.098,427.543 V 144.18 L 1229.5,2.5 1474.89,144.18" /><path
         id="path20"
         style="fill:none;stroke:#000000;stroke-width:4.99819994;stroke-linecap:round;stroke-linejoin:round;stroke-miterlimit:10;stroke-dasharray:none;stroke-opacity:1"
         d="M 1474.89,144.18 V 427.543 L 1229.5,569.227 984.098,427.543 V 144.18 L 1229.5,2.5 Z" /><path
         id="path22"
         style="fill:#ffffff;fill-opacity:1;fill-rule:nonzero;stroke:none"
         d="M 1229.5,569.227 V 852.586 L 984.098,994.27 738.695,852.586 V 569.227 L 984.098,427.543 1229.5,569.227" /><path
         id="path24"
         style="fill:none;stroke:#000000;stroke-width:4.99819994;stroke-linecap:round;stroke-linejoin:round;stroke-miterlimit:10;stroke-dasharray:none;stroke-opacity:1"
         d="M 1229.5,569.227 V 852.586 L 984.098,994.27 738.695,852.586 V 569.227 L 984.098,427.543 Z" /><path
         id="path26"
         style="fill:#ffffff;fill-opacity:1;fill-rule:nonzero;stroke:none"
         d="M 738.695,569.227 V 852.586 L 493.297,994.27 247.898,852.586 V 569.227 L 493.297,427.543 738.695,569.227" /><path
         id="path28"
         style="fill:none;stroke:#000000;stroke-width:4.99819994;stroke-linecap:round;stroke-linejoin:round;stroke-miterlimit:10;stroke-dasharray:none;stroke-opacity:1"
         d="M 738.695,569.227 V 852.586 L 493.297,994.27 247.898,852.586 V 569.227 L 493.297,427.543 Z" /><path
         id="path30"
         style="fill:#b2df8a;fill-opacity:1;fill-rule:nonzero;stroke:none"
         d="M 493.297,144.18 V 427.543 L 247.898,569.227 2.5,427.543 V 144.18 L 247.898,2.5 493.297,144.18" /><path
         id="path32"
         style="fill:none;stroke:#000000;stroke-width:4.99819994;stroke-linecap:round;stroke-linejoin:round;stroke-miterlimit:10;stroke-dasharray:none;stroke-opacity:1"
         d="M 493.297,144.18 V 427.543 L 247.898,569.227 2.5,427.543 V 144.18 L 247.898,2.5 Z" /><g
         id="g34"><g
           clip-path="url(#clipPath40)"
           id="g36"><path
             id="path42"
             style="fill:#a6cee3;fill-opacity:1;fill-rule:nonzero;stroke:none"
             d="m 1059.6,116.98 h 339.418 V 456.398 H 1059.6 Z" /><path
             id="path44"
             style="fill:#00000a;fill-opacity:1;fill-rule:evenodd;stroke:none"
             d="m 1299.7,188.93 h -98.34 c 0,13.98 1,16.754 24.15,16.754 -3.7,11.097 -18.73,37.945 -27.09,37.945 -7.39,0 -16.21,-0.41 -16.21,-17.274 0,-19.148 -32.22,-50.019 -40.03,-37.425 -11.64,18.773 20.02,13.047 20.02,58.312 0,61.926 -36.14,53.11 -36.14,87.899 0,17.406 4.81,19.761 4.81,32.203 0,16.449 -14.49,15.492 -11.67,29.129 1.94,9.418 3.46,16.972 4.6,28.367 0.81,8.082 1.06,16.695 9.46,16.348 9.86,-0.407 13.61,-17.77 28.94,-19.016 15.3,-1.242 28.35,13.027 34.26,10.988 5.88,-2.023 4.03,-17.949 0.55,-29.262 -5.47,-17.785 -17.41,-40.906 4.35,-44.386 21.76,-3.481 59.18,-6.965 86.16,-42.645 26.98,-35.683 25.98,-77.558 36.55,-90.512 35.48,-43.472 71.83,-25.625 71.83,-61.792 0,-16.192 -27.44,-27.852 -31.79,-22.629 -4.35,5.222 36.97,20.785 -9.27,39.164 -39.5,15.707 -43.03,18.91 -55.14,7.832 z" /></g></g><g
         id="g46"><g
           clip-path="url(#clipPath52)"
           id="g48"><path
             id="path54"
             style="fill:#000000;fill-opacity:1;fill-rule:nonzero;stroke:none"
             d="m 357.855,220.402 c -7.902,0 -88.015,-3.547 -131.851,-2.769 -43.805,0.781 -143.672,0.406 -113.68,40.664 0,0 13.754,15.805 25.262,35.527 11.766,20.16 37.117,49.344 61.973,41.442 16.988,4.328 54.074,16.988 92.371,-20.907 0,0 19.351,21.313 31.175,23.27 0,0 4.325,17.363 11.043,17.363 6.719,0 11.856,-11.855 11.856,-13.035 0,-1.184 8.68,-2.363 11.043,-0.406 2.363,1.961 15.398,15.804 22.898,13.41 1.731,-1.152 -5.914,-16.176 -5.914,-16.176 0,0 -2.765,-5.539 6.114,-16.582 3.546,-4.297 3.546,-23.101 3.144,-24.484 -0.402,-1.383 3.547,-4.528 -0.605,-9.864 0.23,-6.054 -3.344,-9.402 -7.297,-9.804 0,0 -0.172,-31.203 -11.621,-41.067 0,0 25.668,2.77 25.668,-9.488 0,-12.226 -23.676,-7.094 -31.579,-7.094 z" /></g></g><g
         transform="scale(10)"
         id="g56"><text
           id="text60"
           style="font-variant:normal;font-size:11.9552002px;font-family:'Nimbus Sans';-inkscape-font-specification:NimbusSanL-Regu;writing-mode:lr-tb;fill:#000000;fill-opacity:1;fill-rule:nonzero;stroke:none"
           transform="matrix(1,0,0,-1,155.4,81.1199)"><tspan
             id="tspan58"
             y="0"
             x="0 3.360008 9.9600286 14.160203 24.240313">turn0</tspan></text>
</g><g
         transform="scale(10)"
         id="g62"><text
           id="text68"
           style="font-variant:normal;font-size:11.9552002px;font-family:'Nimbus Sans';-inkscape-font-specification:NimbusSanL-Regu;writing-mode:lr-tb;fill:#9ec4d8;fill-opacity:1;fill-rule:nonzero;stroke:none"
           transform="matrix(1,0,0,-1,155.4,45.7199)"><tspan
             id="tspan64"
             y="0"
             x="0 6.0000124 12.600033 19.200054 25.800074 29.160082 36.720024">count:1</tspan><tspan
             id="tspan66"
             y="35.400002"
             x="0 6.0000124 12.000025 18.600044 22.560057 29.160078 36.72002">score:1</tspan></text>
</g><g
         transform="scale(10)"
         id="g70"><text
           id="text76"
           style="font-variant:normal;font-size:11.9552002px;font-family:'Nimbus Sans';-inkscape-font-specification:NimbusSanL-Regu;writing-mode:lr-tb;fill:#a9d483;fill-opacity:1;fill-rule:nonzero;stroke:none"
           transform="matrix(1,0,0,-1,155.4,59.8801)"><tspan
             id="tspan72"
             y="0"
             x="0 6.0000124 12.600033 19.200054 25.800074 29.160082 36.720024">count:1</tspan><tspan
             id="tspan74"
             y="35.400002"
             x="0 6.0000124 12.000025 18.600044 22.560057 29.160078 36.72002">score:1</tspan></text>
</g></g></g></svg>