<?xml version="1.0" encoding="UTF-8" standalone="no"?>
<svg
   xmlns:dc="http://purl.org/dc/elements/1.1/"
   xmlns:cc="http://creativecommons.org/ns#"
   xmlns:rdf="http://www.w3.org/1999/02/22-rdf-syntax-ns#"
   xmlns:svg="http://www.w3.org/2000/svg"
   xmlns="http://www.w3.org/2000/svg"
   xmlns:sodipodi="http://sodipodi.sourceforge.net/DTD/sodipodi-0.dtd"
   xmlns:inkscape="http://www.inkscape.org/namespaces/inkscape"
   version="1.0"
   width="644.32068pt"
   height="901.31836pt"
   viewBox="0 0 644.32068 901.31836"
   preserveAspectRatio="xMidYMid meet"
   id="svg20"
   sodipodi:docname="thin_bomb.svg"
   inkscape:version="0.92.2 2405546, 2018-03-11">
  <metadata
     id="metadata26">
    <rdf:RDF>
      <cc:Work
         rdf:about="">
        <dc:format>image/svg+xml</dc:format>
        <dc:type
           rdf:resource="http://purl.org/dc/dcmitype/StillImage" />
        <dc:title></dc:title>
      </cc:Work>
    </rdf:RDF>
  </metadata>
  <defs
     id="defs24" />
  <sodipodi:namedview
     pagecolor="#ffffff"
     bordercolor="#666666"
     borderopacity="1"
     objecttolerance="10"
     gridtolerance="10"
     guidetolerance="10"
     inkscape:pageopacity="0"
     inkscape:pageshadow="2"
     inkscape:window-width="1596"
     inkscape:window-height="852"
     id="namedview22"
     showgrid="false"
     inkscape:zoom="0.51664768"
     inkscape:cx="455.72548"
     inkscape:cy="635.69308"
     inkscape:window-x="0"
     inkscape:window-y="22"
     inkscape:window-maximized="0"
     inkscape:current-layer="svg20"
     fit-margin-top="0"
     fit-margin-left="0"
     fit-margin-right="0"
     fit-margin-bottom="0" />
  <g
     transform="matrix(0.1,0,0,-0.1,-0.07933314,901.36615)"
     id="g18"
     style="fill:#000000;stroke:none">
    <path
       d="m 4135,9013 c -254,-21 -522,-115 -735,-258 -98,-66 -249,-211 -322,-309 -180,-242 -287,-618 -307,-1081 l -6,-150 -120,-17 c -125,-18 -343,-60 -407,-78 l -38,-11 v -412 -413 l -137,-53 C 1627,6061 1247,5809 915,5469 450,4992 156,4415 46,3759 -165,2511 374,1257 1425,551 c 246,-165 469,-277 740,-370 775,-268 1590,-237 2351,89 222,95 523,275 709,425 617,496 1018,1157 1169,1930 40,203 50,327 50,600 0,273 -10,397 -50,600 -168,858 -653,1593 -1369,2074 -223,150 -435,259 -672,347 l -103,38 v 412 413 l -37,10 c -98,26 -242,54 -381,75 -84,13 -154,25 -156,27 -9,9 16,313 34,420 26,160 49,214 120,292 117,127 240,185 415,194 781.8131,41.3333 957.6651,914.0424 -110,886 z"
       id="path8"
       inkscape:connector-curvature="0"
       sodipodi:nodetypes="ccccccccccccccccccsccccccccscccc" />
  </g>
</svg>
