<?xml version="1.0" encoding="UTF-8" standalone="no"?>
<svg
   xmlns:dc="http://purl.org/dc/elements/1.1/"
   xmlns:cc="http://creativecommons.org/ns#"
   xmlns:rdf="http://www.w3.org/1999/02/22-rdf-syntax-ns#"
   xmlns:svg="http://www.w3.org/2000/svg"
   xmlns="http://www.w3.org/2000/svg"
   viewBox="0 0 309.54666 268.05334"
   height="268.05334"
   width="309.54666"
   xml:space="preserve"
   id="svg2"
   version="1.1"><metadata
     id="metadata8"><rdf:RDF><cc:Work
         rdf:about=""><dc:format>image/svg+xml</dc:format><dc:type
           rdf:resource="http://purl.org/dc/dcmitype/StillImage" /></cc:Work></rdf:RDF></metadata><defs
     id="defs6" /><g
     transform="matrix(1.3333333,0,0,-1.3333333,0,268.05333)"
     id="g10"><g
       transform="scale(0.1)"
       id="g12"><path
         id="path14"
         style="fill:none;stroke:#000000;stroke-width:14.99610043;stroke-linecap:round;stroke-linejoin:round;stroke-miterlimit:10;stroke-dasharray:none;stroke-opacity:1"
         d="M 2052.39,1004.94 H 168.633" /><path
         id="path16"
         style="fill:#000000;fill-opacity:1;fill-rule:nonzero;stroke:none"
         d="m 2152.37,1004.94 -99.98,26.78 v -53.572 z" /><path
         id="path18"
         style="fill:none;stroke:#000000;stroke-width:14.99610043;stroke-linecap:round;stroke-linejoin:round;stroke-miterlimit:10;stroke-dasharray:none;stroke-opacity:1"
         d="m 2152.37,1004.94 -99.98,26.78 v -53.572 z" /><path
         id="path20"
         style="fill:none;stroke:#000000;stroke-width:14.99610043;stroke-linecap:round;stroke-linejoin:round;stroke-miterlimit:10;stroke-dasharray:none;stroke-opacity:1"
         d="M 1606.45,1777.34 664.566,145.957" /><path
         id="path22"
         style="fill:#000000;fill-opacity:1;fill-rule:nonzero;stroke:none"
         d="m 1656.43,1863.92 -73.18,-73.19 46.39,-26.78 z" /><path
         id="path24"
         style="fill:none;stroke:#000000;stroke-width:14.99610043;stroke-linecap:round;stroke-linejoin:round;stroke-miterlimit:10;stroke-dasharray:none;stroke-opacity:1"
         d="m 1656.43,1863.92 -73.18,-73.19 46.39,-26.78 z" /><path
         id="path26"
         style="fill:none;stroke:#000000;stroke-width:14.99610043;stroke-linecap:round;stroke-linejoin:round;stroke-miterlimit:10;stroke-dasharray:none;stroke-opacity:1"
         d="M 714.555,1777.34 1656.43,145.957" /><path
         id="path28"
         style="fill:#000000;fill-opacity:1;fill-rule:nonzero;stroke:none"
         d="m 664.566,1863.92 26.789,-99.97 46.399,26.78 z" /><path
         id="path30"
         style="fill:none;stroke:#000000;stroke-width:14.99610043;stroke-linecap:round;stroke-linejoin:round;stroke-miterlimit:10;stroke-dasharray:none;stroke-opacity:1"
         d="m 664.566,1863.92 26.789,-99.97 46.399,26.78 z" /><path
         id="path32"
         style="fill:#ffffff;fill-opacity:0.97000002;fill-rule:nonzero;stroke:none"
         d="m 1405.92,863.242 v 283.388 l -245.42,141.7 -245.422,-141.7 V 863.242 L 1160.5,721.547 1405.92,863.242" /><path
         id="path34"
         style="fill:none;stroke:#000000;stroke-width:4.99869013;stroke-linecap:round;stroke-linejoin:round;stroke-miterlimit:10;stroke-dasharray:none;stroke-opacity:1"
         d="m 1405.92,863.242 v 283.388 l -245.42,141.7 -245.422,-141.7 V 863.242 L 1160.5,721.547 Z" /><path
         id="path36"
         style="fill:#ffffff;fill-opacity:0.97000002;fill-rule:nonzero;stroke:none"
         d="m 1896.77,863.242 v 283.388 l -245.42,141.7 -245.43,-141.7 V 863.242 l 245.43,-141.695 245.42,141.695" /><path
         id="path38"
         style="fill:none;stroke:#000000;stroke-width:4.99869013;stroke-linecap:round;stroke-linejoin:round;stroke-miterlimit:10;stroke-dasharray:none;stroke-opacity:1"
         d="m 1896.77,863.242 v 283.388 l -245.42,141.7 -245.43,-141.7 V 863.242 l 245.43,-141.695 z" /><path
         id="path40"
         style="fill:#ffffff;fill-opacity:0.97000002;fill-rule:nonzero;stroke:none"
         d="m 1651.35,1288.33 v 283.39 l -245.43,141.69 -245.42,-141.69 v -283.39 l 245.42,-141.7 245.43,141.7" /><path
         id="path42"
         style="fill:none;stroke:#000000;stroke-width:4.99869013;stroke-linecap:round;stroke-linejoin:round;stroke-miterlimit:10;stroke-dasharray:none;stroke-opacity:1"
         d="m 1651.35,1288.33 v 283.39 l -245.43,141.69 -245.42,-141.69 v -283.39 l 245.42,-141.7 z" /><path
         id="path44"
         style="fill:#ffffff;fill-opacity:0.97000002;fill-rule:nonzero;stroke:none"
         d="m 1160.5,1288.33 v 283.39 L 915.078,1713.41 669.652,1571.72 v -283.39 l 245.426,-141.7 245.422,141.7" /><path
         id="path46"
         style="fill:none;stroke:#000000;stroke-width:4.99869013;stroke-linecap:round;stroke-linejoin:round;stroke-miterlimit:10;stroke-dasharray:none;stroke-opacity:1"
         d="m 1160.5,1288.33 v 283.39 L 915.078,1713.41 669.652,1571.72 v -283.39 l 245.426,-141.7 z" /><path
         id="path48"
         style="fill:#ffffff;fill-opacity:0.97000002;fill-rule:nonzero;stroke:none"
         d="M 915.078,863.242 V 1146.63 L 669.652,1288.33 424.23,1146.63 V 863.242 L 669.652,721.547 915.078,863.242" /><path
         id="path50"
         style="fill:none;stroke:#000000;stroke-width:4.99869013;stroke-linecap:round;stroke-linejoin:round;stroke-miterlimit:10;stroke-dasharray:none;stroke-opacity:1"
         d="M 915.078,863.242 V 1146.63 L 669.652,1288.33 424.23,1146.63 V 863.242 L 669.652,721.547 Z" /><path
         id="path52"
         style="fill:#ffffff;fill-opacity:0.97000002;fill-rule:nonzero;stroke:none"
         d="M 1160.5,438.156 V 721.547 L 915.078,863.242 669.652,721.547 V 438.156 L 915.078,296.461 1160.5,438.156" /><path
         id="path54"
         style="fill:none;stroke:#000000;stroke-width:4.99869013;stroke-linecap:round;stroke-linejoin:round;stroke-miterlimit:10;stroke-dasharray:none;stroke-opacity:1"
         d="M 1160.5,438.156 V 721.547 L 915.078,863.242 669.652,721.547 V 438.156 L 915.078,296.461 Z" /><path
         id="path56"
         style="fill:#ffffff;fill-opacity:0.97000002;fill-rule:nonzero;stroke:none"
         d="M 1651.35,438.156 V 721.547 L 1405.92,863.242 1160.5,721.547 V 438.156 l 245.42,-141.695 245.43,141.695" /><path
         id="path58"
         style="fill:none;stroke:#000000;stroke-width:4.99869013;stroke-linecap:round;stroke-linejoin:round;stroke-miterlimit:10;stroke-dasharray:none;stroke-opacity:1"
         d="M 1651.35,438.156 V 721.547 L 1405.92,863.242 1160.5,721.547 V 438.156 l 245.42,-141.695 z" /><g
         transform="scale(10)"
         id="g60"><text
           id="text64"
           style="font-variant:normal;font-weight:normal;font-size:11.9552002px;font-family:CMMI12;-inkscape-font-specification:CMMI12;writing-mode:lr-tb;fill:#000000;fill-opacity:1;fill-rule:nonzero;stroke:none"
           transform="matrix(1,0,0,-1,216.96,96)"><tspan
             id="tspan62"
             y="0"
             x="0">x</tspan></text>
<text
           id="text68"
           style="font-variant:normal;font-weight:normal;font-size:7.97010994px;font-family:CMR8;-inkscape-font-specification:CMR8;writing-mode:lr-tb;fill:#000000;fill-opacity:1;fill-rule:nonzero;stroke:none"
           transform="matrix(1,0,0,-1,223.56,100.31992)"><tspan
             id="tspan66"
             y="0"
             x="0">+</tspan></text>
<text
           id="text72"
           style="font-variant:normal;font-weight:normal;font-size:11.9552002px;font-family:CMMI12;-inkscape-font-specification:CMMI12;writing-mode:lr-tb;fill:#000000;fill-opacity:1;fill-rule:nonzero;stroke:none"
           transform="matrix(1,0,0,-1,163.3198,190.44022)"><tspan
             id="tspan70"
             y="0"
             x="0">y</tspan></text>
<text
           id="text76"
           style="font-variant:normal;font-weight:normal;font-size:7.97010994px;font-family:CMR8;-inkscape-font-specification:CMR8;writing-mode:lr-tb;fill:#000000;fill-opacity:1;fill-rule:nonzero;stroke:none"
           transform="matrix(1,0,0,-1,169.56003,194.76014)"><tspan
             id="tspan74"
             y="0"
             x="0">+</tspan></text>
<text
           id="text80"
           style="font-variant:normal;font-weight:normal;font-size:11.9552002px;font-family:CMMI12;-inkscape-font-specification:CMMI12;writing-mode:lr-tb;fill:#000000;fill-opacity:1;fill-rule:nonzero;stroke:none"
           transform="matrix(1,0,0,-1,55.68003,189.24022)"><tspan
             id="tspan78"
             y="0"
             x="0">z</tspan></text>
<text
           id="text84"
           style="font-variant:normal;font-weight:normal;font-size:7.97010994px;font-family:CMR8;-inkscape-font-specification:CMR8;writing-mode:lr-tb;fill:#000000;fill-opacity:1;fill-rule:nonzero;stroke:none"
           transform="matrix(1,0,0,-1,61.56011,193.56014)"><tspan
             id="tspan82"
             y="0"
             x="0">+</tspan></text>
<text
           id="text88"
           style="font-variant:normal;font-weight:normal;font-size:11.9552002px;font-family:CMMI12;-inkscape-font-specification:CMMI12;writing-mode:lr-tb;fill:#000000;fill-opacity:1;fill-rule:nonzero;stroke:none"
           transform="matrix(1,0,0,-1,1.56011,95.99994)"><tspan
             id="tspan86"
             y="0"
             x="0">x</tspan></text>
<text
           id="text92"
           style="font-variant:normal;font-weight:normal;font-size:7.97010994px;font-family:CMSY8;-inkscape-font-specification:CMSY8;writing-mode:lr-tb;fill:#000000;fill-opacity:1;fill-rule:nonzero;stroke:none"
           transform="matrix(1,0,0,-1,8.16011,100.31986)"><tspan
             id="tspan90"
             y="0"
             x="0">−</tspan></text>
<text
           id="text96"
           style="font-variant:normal;font-weight:normal;font-size:11.9552002px;font-family:CMMI12;-inkscape-font-specification:CMMI12;writing-mode:lr-tb;fill:#000000;fill-opacity:1;fill-rule:nonzero;stroke:none"
           transform="matrix(1,0,0,-1,55.68001,3.84016)"><tspan
             id="tspan94"
             y="0"
             x="0">y</tspan></text>
<text
           id="text100"
           style="font-variant:normal;font-weight:normal;font-size:7.97010994px;font-family:CMSY8;-inkscape-font-specification:CMSY8;writing-mode:lr-tb;fill:#000000;fill-opacity:1;fill-rule:nonzero;stroke:none"
           transform="matrix(1,0,0,-1,61.91985,8.16008)"><tspan
             id="tspan98"
             y="0"
             x="0">−</tspan></text>
<text
           id="text104"
           style="font-variant:normal;font-weight:normal;font-size:11.9552002px;font-family:CMMI12;-inkscape-font-specification:CMMI12;writing-mode:lr-tb;fill:#000000;fill-opacity:1;fill-rule:nonzero;stroke:none"
           transform="matrix(1,0,0,-1,163.43985,2.64016)"><tspan
             id="tspan102"
             y="0"
             x="0">z</tspan></text>
<text
           id="text108"
           style="font-variant:normal;font-weight:normal;font-size:7.97010994px;font-family:CMSY8;-inkscape-font-specification:CMSY8;writing-mode:lr-tb;fill:#000000;fill-opacity:1;fill-rule:nonzero;stroke:none"
           transform="matrix(1,0,0,-1,169.31993,6.96008)"><tspan
             id="tspan106"
             y="0"
             x="0">−</tspan></text>
<text
           id="text118"
           style="font-variant:normal;font-weight:normal;font-size:11.9552002px;font-family:CMR12;-inkscape-font-specification:CMR12;writing-mode:lr-tb;fill:#000000;fill-opacity:1;fill-rule:nonzero;stroke:none"
           transform="matrix(1,0,0,-1,104.03983,97.56008)"><tspan
             id="tspan110"
             y="0"
             x="0 4.5600047 10.440022 13.67988 19.559896 49.080036 53.640041 59.520058 62.759914 68.639931">(0,0)(1,0)</tspan><tspan
             id="tspan112"
             y="-42.480099"
             x="22.5602 27.120205 33.000221 36.240082 40.200096 46.080101 -26.519899 -21.959888 -16.079872 -12.840014 -8.8800087 -2.9999921">(1,-1)(0,-1)</tspan><tspan
             id="tspan114"
             y="0"
             x="-51 -46.439987 -42.479977 -36.59996 -33.360104 -27.480085">(-1,0)</tspan><tspan
             id="tspan116"
             y="42.599998"
             x="-26.519899 -21.959888 -17.999878 -12.119862 -8.880002 -2.9999859 24.600027 29.160032 35.040051 38.279907 44.159924">(-1,1)(0,1)</tspan></text>
</g></g></g></svg>